<?xml version="1.0" standalone="no"?>
<!DOCTYPE svg PUBLIC "-//W3C//DTD SVG 1.1//EN" "http://www.w3.org/Graphics/SVG/1.1/DTD/svg11.dtd" >
<svg xmlns="http://www.w3.org/2000/svg" xmlns:xlink="http://www.w3.org/1999/xlink" version="1.1">
<metadata>
Created by FontForge 20150504 at Wed Jun 17 14:43:09 2015
 By Jimmy Wärting
Typeface (c) inglobal. 2014. All Rights Reserved
</metadata>
<defs>
<font id="inglobal" horiz-adv-x="1242" >
  <font-face 
    font-family="inglobal"
    font-weight="400"
    font-stretch="normal"
    units-per-em="2048"
    panose-1="2 0 8 0 0 0 0 0 0 0"
    ascent="1638"
    descent="-410"
    x-height="1025"
    cap-height="1435"
    bbox="-180 -441 2243 1876"
    underline-thickness="150"
    underline-position="-292"
    unicode-range="U+001D-2265"
  />
<missing-glyph horiz-adv-x="1024" 
 />
    <glyph glyph-name=".notdef" horiz-adv-x="1024" 
 />
    <glyph glyph-name=".null" horiz-adv-x="0" 
 />
    <glyph glyph-name=".null" horiz-adv-x="0" 
 />
    <glyph glyph-name="nonmarkingreturn" horiz-adv-x="508" 
 />
    <glyph glyph-name="space" unicode=" " horiz-adv-x="508" 
 />
    <glyph glyph-name="space" unicode="&#xa0;" horiz-adv-x="508" 
 />
    <glyph glyph-name="exclam" unicode="!" horiz-adv-x="582" 
d="M322 523q-5 -58 -13 -85t-33 -27q-18 0 -27 16q-9 17 -11 35t-7 72l-61 869q0 152 106 152q50 0 77 -33t27 -128l-5 -110zM275 0q-122 0 -122 105q0 106 122 106t122 -106q0 -105 -122 -105z" />
    <glyph glyph-name="quotedbl" unicode="&#x22;" horiz-adv-x="676" 
d="M525 1426v-4l-30 -209q-2 -25 -16 -42q-16 -18 -36 -18q-21 0 -38 18q-14 16 -16 42l-30 211l-2 23q0 33 12 58q13 24 33 37t41 13t40 -14q20 -13 32 -39q12 -25 12 -56zM265 1426v-4l-30 -209q-2 -25 -16 -42q-16 -18 -36 -18q-21 0 -38 18q-14 16 -16 42l-30 211l-2 23
q0 33 12 58q13 24 33 37t41 13t40 -14q20 -13 32 -39q12 -25 12 -56z" />
    <glyph glyph-name="numbersign" unicode="#" horiz-adv-x="1271" 
d="M820 880h-320l-103 -304h320zM1169 992q56 0 56 -56t-56 -56h-232l-102 -304h204q56 0 56 -56q0 -57 -56 -57h-242l-100 -295q-13 -39 -45 -39q-12 0 -26 5q-39 13 -39 46q0 11 5 25l87 258h-320l-100 -295q-13 -39 -45 -39q-11 0 -25 5q-40 13 -40 46q0 12 5 25l88 258
h-196q-56 0 -56 57q0 56 56 56h233l103 304h-206q-56 0 -56 56t56 56h244l92 273q13 39 45 39q12 0 26 -5q39 -13 39 -46q0 -11 -5 -25l-79 -236h320l92 273q13 39 45 39q12 0 26 -5q39 -13 39 -46q0 -11 -5 -25l-80 -236h194z" />
    <glyph glyph-name="dollar" unicode="$" horiz-adv-x="1127" 
d="M916 716q123 -95 123 -270q0 -155 -97 -266q-79 -91 -211 -140q-67 -26 -135 -36v-233q0 -66 -66 -66q-67 0 -67 66v230q-131 10 -232 63q-100 52 -161 140q-50 73 -50 130q0 32 18 54q17 22 42 22q23 0 41 -29q28 -46 63 -106q66 -87 150 -129q83 -42 192 -42
q160 0 264 82q103 81 103 206q0 116 -85 184q-61 48 -174 72q-64 11 -128 21q-59 10 -86 17q-27 6 -74 20q-128 39 -196 121q-72 86 -72 214q0 164 116 274q104 100 269 116v217q0 66 67 66q66 0 66 -66v-216q33 -3 66 -9q67 -11 122 -31q62 -23 112 -69q28 -23 28 -58
q0 -76 -75 -76q-30 0 -53 20l-111 81q-89 46 -185 46q-119 0 -193 -65t-74 -172t65 -161q60 -51 212 -86q6 -3 49 -12t52 -11q206 -36 305 -113z" />
    <glyph glyph-name="percent" unicode="%" horiz-adv-x="1675" 
d="M1373 166q52 87 52 238q0 171 -62 253q-50 65 -133 65q-88 0 -137 -84q-49 -85 -49 -236q0 -152 49 -238q50 -85 139 -85t141 87zM1478 685q94 -111 94 -288q0 -175 -94 -285q-95 -110 -246 -110q-148 0 -243 111t-95 284q0 175 94 287q95 113 244 113q151 0 246 -112z
M483 805q52 87 52 238q0 172 -62 253q-50 65 -133 65q-88 0 -137 -84t-49 -236t49 -237q50 -86 139 -86t141 87zM588 1325q94 -111 94 -289q0 -175 -94 -285q-95 -110 -246 -110q-148 0 -243 111q-95 112 -95 284q0 175 94 288q95 112 244 112q151 0 246 -111zM249 41
q0 12 10 26l999 1364q14 19 31 19q12 0 26 -10q19 -14 19 -31q0 -12 -10 -26l-999 -1364q-14 -19 -31 -19q-12 0 -26 10q-19 14 -19 31z" />
    <glyph glyph-name="ampersand" unicode="&#x26;" horiz-adv-x="1453" 
d="M480 121q159 0 300 131l-78 93q-95 114 -142 172q-95 117 -155 198q-136 -92 -183 -185q-28 -54 -28 -125q0 -122 82 -203t204 -81zM367 1147q0 -38 18 -85q31 -79 113 -195q105 64 153 100q67 51 96 94q33 48 33 106q0 83 -57 137t-143 54q-91 0 -152 -57
q-61 -56 -61 -142v-12zM1384 159q48 0 48 -33q0 -48 -66 -79q-67 -32 -170 -32q-80 0 -158 30q-101 39 -190 128q-63 -57 -101 -84q-60 -42 -124 -64q-75 -25 -169 -25q-181 0 -297 107t-116 274q0 97 44 173q37 65 115 127q53 43 159 107q-136 192 -136 321q0 144 96 239
q103 102 268 102q139 0 227 -80t88 -208q0 -100 -61 -169q-10 -14 -56 -52q-77 -62 -223 -153q29 -46 57 -85q37 -55 95 -126q77 -97 181 -212q55 69 92 143q46 93 58 231q6 90 96 90q96 0 96 -96q0 -29 -15 -53q-49 -89 -134 -213q-26 -42 -119 -170q76 -76 134 -110
q78 -47 164 -47q35 8 69 13z" />
    <glyph glyph-name="quotesingle" unicode="'" horiz-adv-x="270" 
d="M218 1426v-4l-30 -209q-2 -25 -16 -42q-16 -18 -36 -18q-21 0 -38 18q-14 16 -16 42l-30 211l-2 23q0 33 12 58q13 24 33 37t41 13t40 -14q20 -13 32 -39q12 -25 12 -56z" />
    <glyph glyph-name="parenleft" unicode="(" horiz-adv-x="664" 
d="M556 -314q0 -66 -66 -66q-47 0 -63 45q-126 276 -182 524q-48 209 -48 407q0 265 87 554q53 181 143 377q16 45 63 45q66 0 66 -67l-5 -26q-77 -170 -124 -349q-67 -262 -68 -534q1 -189 34 -374q46 -264 158 -509z" />
    <glyph glyph-name="parenright" unicode=")" horiz-adv-x="689" 
d="M68 1505q0 67 66 67q48 0 63 -45q126 -276 182 -524q48 -209 48 -407q0 -266 -86 -554q-54 -181 -144 -377q-15 -45 -63 -45q-66 0 -66 66l6 27q76 170 123 349q68 262 68 534q0 189 -33 374q-47 264 -158 509z" />
    <glyph glyph-name="asterisk" unicode="*" horiz-adv-x="823" 
d="M427 1127q28 -61 28 -92q0 -35 -20 -58q-20 -24 -55 -24q-31 0 -53 22t-22 52q0 31 19 83l22 63q19 42 19 62q0 18 -11 18t-23 -11t-24 -27q-12 -15 -20 -27q-13 -17 -26 -35q-16 -22 -30 -37t-31 -26q-18 -10 -36 -10q-32 0 -55 21q-22 22 -22 53q0 49 42 65t116 29
q19 3 36 6q19 3 37 10q19 7 19 17q0 23 -114 36q-69 7 -106 23q-37 15 -37 66q0 29 21 49t51 20q38 0 64 -25q26 -26 72 -81q46 -56 64 -56q11 0 11 17q0 16 -17 54l-20 52q-28 61 -28 95q0 32 21 53q22 20 54 20q31 0 52 -24q20 -23 20 -54q0 -22 -8 -48t-19 -53
q-11 -28 -21 -54q-10 -27 -10 -39q0 -17 10 -17q18 0 60 58t68 87q27 28 66 28q31 0 52 -19q21 -20 21 -52q0 -53 -49 -73q-48 -20 -127 -32q-78 -12 -78 -27q0 -19 83 -29t131 -26q47 -16 47 -68q0 -34 -20 -53q-19 -20 -53 -20q-20 0 -40 12q-19 11 -36 27t-33 36
q-17 20 -33 39q-41 52 -57 52q-12 0 -12 -17q0 -13 15 -54z" />
    <glyph glyph-name="plus" unicode="+" horiz-adv-x="1358" 
d="M1137 766q71 0 71 -72q0 -71 -71 -71h-387v-387q0 -71 -71 -71q-72 0 -72 71v387h-386q-71 0 -71 71q0 72 71 72h386v386q0 71 72 71q71 0 71 -71v-386h387z" />
    <glyph glyph-name="comma" unicode="," horiz-adv-x="552" 
d="M381 117q13 -38 13 -83q0 -159 -150 -318q-16 -18 -29 -26q-13 -9 -28 -9q-19 0 -19 15q0 11 15 35q46 66 93 131q36 62 36 102q0 18 -13 31l-44 1q-128 0 -128 104q0 105 128 105q74 0 111 -52q7 -12 15 -36z" />
    <glyph glyph-name="hyphen" unicode="-" horiz-adv-x="827" 
d="M632 556h-437q-71 0 -71 76t71 76h437q71 0 71 -76t-71 -76z" />
    <glyph glyph-name="hyphen" unicode="&#xad;" horiz-adv-x="827" 
d="M632 556h-437q-71 0 -71 76t71 76h437q71 0 71 -76t-71 -76z" />
    <glyph glyph-name="period" unicode="." horiz-adv-x="518" 
d="M248 0q-117 0 -117 95q0 96 117 96q116 0 116 -96q0 -95 -116 -95z" />
    <glyph glyph-name="slash" unicode="/" horiz-adv-x="993" 
d="M88 -205q-26 12 -26 34q0 10 5 22l793 1706q12 26 35 26q10 0 22 -5q26 -12 26 -34q0 -10 -5 -22l-793 -1706q-12 -26 -35 -26q-10 0 -22 5z" />
    <glyph glyph-name="zero" unicode="0" horiz-adv-x="1070" 
d="M320 220q68 -139 226 -139q122 0 190 77q63 70 88 208q23 117 23 301q0 385 -74 542q-67 147 -227 147q-173 0 -238 -165q-58 -147 -58 -520q0 -313 70 -451zM898 1278q134 -188 134 -566q0 -165 -30 -302q-43 -187 -139 -293q-118 -132 -313 -132q-233 0 -360 189
q-125 190 -125 544q0 347 124 540q126 192 351 192q232 0 358 -172z" />
    <glyph glyph-name="one" unicode="1" horiz-adv-x="833" 
d="M683 67q0 -82 -82 -82q-84 0 -84 82v1214q-184 -136 -328 -351l-2 -3q-18 -24 -48 -24q-60 0 -60 59q0 12 5 23q6 11 13 19q144 200 353 370q91 73 150 76q83 0 83 -81v-1302z" />
    <glyph glyph-name="two" unicode="2" horiz-adv-x="1202" 
d="M1030 189q94 0 94 -94q0 -95 -94 -95h-801q-91 0 -91 64q0 57 73 166q61 90 269 300q27 26 83 80q77 74 135 131q75 73 81 81q59 67 92 144t33 151q0 101 -71 167q-72 64 -184 64q-110 0 -199 -63q-89 -64 -89 -143q0 -19 29 -52q30 -35 30 -76q0 -20 -8 -39
q-5 -20 -24 -37q-25 -21 -58 -21q-54 0 -93 46q-39 48 -39 115q0 153 139 262q139 110 333 110q181 0 296 -101q113 -101 113 -261q0 -201 -209 -395q-405 -375 -506 -513q-8 -11 -8 -21q0 -14 17 -25q42 -30 247 -30q166 0 240 21q53 15 133 56q18 8 37 8z" />
    <glyph glyph-name="three" unicode="3" horiz-adv-x="1132" 
d="M942 654q91 -90 91 -239q0 -186 -140 -306q-145 -124 -384 -124q-190 0 -306 79q-118 81 -118 210q0 56 24 91q16 24 41 32l5 2q15 5 31 5q92 0 94 -94q3 -132 59 -180q70 -60 172 -60q148 0 240 92t92 240q0 151 -85 237q-80 79 -205 79h-116q-25 0 -45 13t-20 29
q0 25 26 38q25 13 90 23q185 25 259 121q50 65 50 167q0 113 -69 182q-69 70 -179 70q-86 0 -156 -47q-41 -28 -41 -158q0 -30 -19 -55q-6 -12 -19 -21q-23 -20 -54 -20q-23 0 -44 11q-54 26 -54 85l1 14q0 113 120 197q120 83 284 83q177 0 295 -97t118 -244
q0 -246 -324 -325q194 -41 286 -130z" />
    <glyph glyph-name="four" unicode="4" horiz-adv-x="1166" 
d="M736 515l1 766q-363 -269 -528 -766h527zM1123 504q29 -9 29 -55q0 -39 -23 -49q-22 -11 -95 -11h-133v-322q0 -82 -82 -82q-83 0 -83 82v322h-596q-44 0 -62 13q-18 14 -18 48q0 63 38 152q200 469 572 772q90 73 149 76q82 0 82 -81v-854h93q100 0 129 -11z" />
    <glyph glyph-name="five" unicode="5" horiz-adv-x="1154" 
d="M327 817q94 45 176 61q53 11 119 11q193 0 315 -117q123 -117 123 -297q0 -222 -148 -355q-150 -135 -396 -135q-176 0 -294 79q-119 79 -119 198q0 51 25 83q24 32 65 32q43 0 66 -25q24 -25 24 -70q0 -101 63 -152q58 -47 162 -47q168 0 268 103q100 104 100 278
q0 150 -78 238t-212 88q-58 0 -122 -20q-62 -20 -137 -64q-45 -28 -82 -28q-21 0 -31 16q-11 15 -11 43q2 25 8 86q11 155 16 254q9 171 9 263q0 49 11 68q9 19 36 19q74 -6 149 -12q74 -5 119 -5q67 0 156 8q86 8 180 17q29 0 41 -5q20 -8 20 -34q0 -62 -139 -100t-330 -38
l-45 1q-79 5 -83 5z" />
    <glyph glyph-name="six" unicode="6" horiz-adv-x="1097" 
d="M791 176q77 97 77 271q0 164 -78 258q-78 93 -217 93q-81 0 -165 -34q-143 -59 -158 -205q-3 -32 -3 -62q0 -160 89 -291q86 -126 239 -126q139 0 216 96zM960 754q95 -116 95 -284q0 -215 -139 -350q-140 -135 -360 -135q-234 0 -360 169q-128 173 -128 499
q0 370 147 582q148 215 385 215q196 0 335 -123q89 -78 89 -155q0 -97 -98 -97t-98 97l2 20v4q0 32 -27 65q-75 94 -185 94q-166 0 -252 -126q-103 -153 -103 -364q0 -43 4 -89q98 68 189 101q71 25 152 25q29 0 61 -4q188 -19 291 -144z" />
    <glyph glyph-name="seven" unicode="7" horiz-adv-x="1008" 
d="M923 1434q45 -5 45 -38q0 -17 -13 -45q-419 -1149 -441 -1221q-27 -90 -42 -108q-27 -37 -101 -37q-31 0 -51 19q-21 19 -21 46q1 7 2 18q9 50 53 159l196 465l258 580q3 6 4 12q0 9 -12 17q-46 30 -250 30q-169 0 -242 -21q-55 -15 -136 -57q-18 -7 -37 -7q-95 0 -95 94
q0 95 95 95z" />
    <glyph glyph-name="eight" unicode="8" horiz-adv-x="1085" 
d="M789 976q54 66 54 152q0 99 -81 164q-83 66 -205 66q-126 0 -210 -66q-83 -64 -83 -165q0 -87 59 -144q79 -78 288 -143q124 70 178 136zM266 505q-47 -70 -47 -172q0 -118 92 -191q91 -73 237 -73q145 0 240 79q96 78 96 197q0 97 -79 169q-90 84 -317 174
q-162 -93 -222 -183zM968 622q72 -86 72 -222q0 -178 -143 -296q-143 -119 -360 -119q-205 0 -335 99q-129 99 -129 257q0 98 42 169q37 63 113 118q42 30 164 101q-136 68 -199 156q-65 87 -65 196q0 163 124 266q125 103 324 103q156 0 271 -74q133 -86 133 -233
q0 -110 -75 -198q-65 -75 -198 -148q189 -89 261 -175z" />
    <glyph glyph-name="nine" unicode="9" horiz-adv-x="1098" 
d="M321 1259q-77 -96 -77 -271q0 -164 78 -258q78 -93 217 -93q81 0 165 34q143 59 158 205q3 32 3 62q0 160 -89 291q-86 126 -239 126q-139 0 -216 -96zM152 681q-95 116 -95 284q0 215 139 350q140 135 360 135q234 0 360 -169q128 -173 128 -499q0 -370 -147 -582
q-148 -215 -385 -215q-196 0 -335 123q-89 78 -89 155q0 97 98 97t98 -97l-2 -20v-4q0 -32 27 -65q75 -94 185 -94q166 0 252 126q103 153 103 364q0 43 -4 89q-98 -68 -189 -101q-71 -25 -152 -25q-29 0 -61 4q-188 19 -291 144z" />
    <glyph glyph-name="colon" unicode=":" horiz-adv-x="402" 
d="M178 0q-122 0 -122 105q0 104 122 104t122 -104q0 -105 -122 -105zM178 738q-122 0 -122 104q0 105 122 105t122 -105q0 -104 -122 -104z" />
    <glyph glyph-name="semicolon" unicode=";" horiz-adv-x="408" 
d="M177 736q-128 0 -128 105t128 105q129 0 129 -105t-129 -105zM303 117q13 -38 13 -83q0 -159 -150 -318q-16 -18 -29 -26q-13 -9 -28 -9q-19 0 -19 15q0 11 15 35q46 66 93 131q36 62 36 102q0 18 -13 31l-44 1q-128 0 -128 104q0 105 128 105q74 0 111 -52q7 -12 15 -36
z" />
    <glyph glyph-name="semicolon" unicode="&#x37e;" horiz-adv-x="408" 
d="M177 736q-128 0 -128 105t128 105q129 0 129 -105t-129 -105zM303 117q13 -38 13 -83q0 -159 -150 -318q-16 -18 -29 -26q-13 -9 -28 -9q-19 0 -19 15q0 11 15 35q46 66 93 131q36 62 36 102q0 18 -13 31l-44 1q-128 0 -128 104q0 105 128 105q74 0 111 -52q7 -12 15 -36
z" />
    <glyph glyph-name="less" unicode="&#x3c;" horiz-adv-x="1094" 
d="M952 422q44 -18 44 -54q0 -15 -7 -32q-18 -44 -54 -44q-14 0 -32 7l-860 346q-33 13 -40 50v24q5 35 40 49l860 346q18 7 32 7q36 0 54 -44q7 -17 7 -32q0 -36 -44 -54l-707 -284z" />
    <glyph glyph-name="equal" unicode="=" horiz-adv-x="1251" 
d="M1087 783h-923q-71 0 -71 70q0 69 71 69h923q71 0 71 -69q0 -70 -71 -70zM1087 466h-923q-71 0 -71 70q0 69 71 69h923q71 0 71 -69q0 -70 -71 -70z" />
    <glyph glyph-name="greater" unicode="&#x3e;" horiz-adv-x="1117" 
d="M815 707l-707 284q-44 18 -44 54q0 14 7 32q18 44 54 44q14 0 32 -7l859 -346q36 -14 41 -49v-24q-8 -37 -41 -50l-859 -346q-18 -7 -32 -7q-36 0 -54 44q-7 18 -7 32q0 36 44 54z" />
    <glyph glyph-name="question" unicode="?" horiz-adv-x="746" 
d="M581 1446q105 -109 105 -291q0 -177 -91 -291q-85 -107 -275 -185q-45 -19 -58 -49q-12 -31 -12 -103v-49q0 -35 -8 -50q-11 -22 -39 -22q-42 0 -42 98v93q0 111 11 136q10 24 68 54q98 47 143 79q74 52 110 119q44 80 44 195q0 135 -70 214q-69 79 -189 79
q-76 0 -124 -31q-47 -31 -47 -82l6 -80q0 -39 -26 -63q-26 -25 -68 -25q-40 0 -68 25q-27 25 -27 63q0 113 111 194q112 81 266 81q175 0 280 -109zM218 210q126 0 126 -105t-126 -105t-126 105t126 105z" />
    <glyph glyph-name="at" unicode="@" horiz-adv-x="1782" 
d="M1093 776q2 19 2 37q0 71 -26 115q-32 56 -100 61q-6 1 -13 1q-84 0 -167 -97q-75 -88 -131 -224q-48 -119 -55 -201q-1 -13 -1 -24q0 -62 30 -106q36 -52 100 -57q7 -1 13 -1q108 0 217 154q116 164 131 342zM1131 440q-18 -46 -21 -86q-1 -9 -1 -18q0 -35 13 -59
q16 -30 58 -33q7 -1 14 -1q61 0 140 47q102 60 170 167q84 129 98 300q3 30 3 60q0 215 -143 369q-161 175 -436 198q-38 3 -75 3q-293 0 -508 -199q-233 -216 -262 -551q-3 -35 -3 -70q0 -243 150 -418q180 -211 517 -239q61 -5 113 -5q108 0 178 22q285 89 436 302
q15 20 33 20q9 0 19 -5q12 -11 12 -24q0 -9 -5 -18q-93 -158 -335 -267q-100 -44 -194 -61q-80 -14 -168 -14q-49 0 -100 4q-205 17 -375 104q-188 97 -287 262q-94 156 -94 356q0 37 3 76q30 352 302 574q240 195 551 195q43 0 88 -4q298 -24 473 -210q154 -165 154 -396
q0 -30 -3 -62q-19 -233 -166 -401q-136 -155 -292 -155q-13 0 -26 1q-83 7 -122 55t-45 151q-76 -97 -143 -136q-56 -33 -122 -33q-12 0 -24 1q-109 9 -171 100q-52 78 -52 187q0 20 2 41q15 174 167 324q141 138 285 138q12 0 25 -1q75 -6 119 -55q45 -49 62 -144l40 109
q19 47 60 47h6q57 -5 57 -60v-9q-1 -9 -5 -19z" />
    <glyph glyph-name="A" unicode="A" 
d="M837 613q-125 335 -258 616q-79 -151 -166 -367q-50 -125 -95 -249h519zM1199 131q7 -18 7 -36q0 -95 -95 -95q-67 0 -89 64q-52 179 -145 437h-598q-97 -284 -128 -441q-12 -60 -73 -60q-76 0 -76 76l3 21q55 184 60 201q46 133 113 306q82 219 160 395q37 85 80 181
q58 127 98 194q54 91 83 91q52 0 117 -132q280 -571 483 -1202z" />
    <glyph glyph-name="B" unicode="B" horiz-adv-x="1139" 
d="M900 383q0 151 -124 247q-103 81 -361 81h-189v-435q0 -121 51 -148q38 -21 208 -21q199 0 307 72t108 204zM226 828h289q120 0 205 72q94 76 94 210q0 115 -81 168q-81 52 -259 52q-166 0 -201 -21q-47 -28 -47 -154v-327zM915 79q-134 -79 -368 -79h-404q-83 0 -83 87
v1261q0 87 83 87h429q181 0 299 -71q125 -75 129 -232v-12q0 -106 -68 -197q-72 -97 -203 -148q168 -47 259 -145q97 -103 97 -239q0 -213 -170 -312z" />
    <glyph glyph-name="C" unicode="C" horiz-adv-x="1269" 
d="M1218 347q16 -18 16 -36q0 -62 -72 -136q-77 -79 -198 -131q-138 -59 -291 -59q-315 0 -500 208q-174 196 -174 508q0 326 201 537q202 212 515 212q122 0 264 -41q120 -35 157 -67q38 -28 38 -75q0 -93 -93 -93q-38 0 -65 27q-69 65 -116 92q-100 56 -218 56
q-208 0 -347 -179q-138 -180 -138 -451q0 -276 139 -444q140 -169 368 -169q107 0 207 40q100 39 160 107q31 48 50 70q33 42 65 42q16 0 32 -18z" />
    <glyph glyph-name="D" unicode="D" horiz-adv-x="1353" 
d="M849 237q182 163 182 479q0 172 -47 295q-59 150 -187 232q-149 93 -392 93q-108 0 -137 -38q-33 -43 -36 -193v-836q3 -102 41 -136q41 -36 168 -36q252 0 408 140zM1027 1240q204 -195 204 -539q0 -333 -221 -520q-212 -181 -573 -181h-291q-86 0 -86 87v1261
q0 82 81 86l323 1q358 0 563 -195z" />
    <glyph glyph-name="E" unicode="E" horiz-adv-x="1103" 
d="M981 186q95 0 95 -93t-95 -93h-831q-89 0 -89 87l-1 1261q0 87 89 87h762q98 0 98 -96t-98 -96q-20 0 -39 8q-84 43 -141 58q-76 20 -251 20q-117 0 -185 -9q-8 -4 -14 -8q-37 -26 -42 -106v-366h589q60 0 60 -59t-60 -59h-589l1 -460q3 -88 28 -115q28 -33 130 -33h217
q219 0 325 63q20 9 41 9z" />
    <glyph glyph-name="F" unicode="F" horiz-adv-x="969" 
d="M875 1435q94 0 94 -96q0 -95 -94 -95q-19 0 -37 8q-80 42 -135 57q-73 21 -240 21q-112 0 -177 -10q-8 -3 -13 -7q-37 -28 -41 -116v-397h539q58 0 58 -59t-58 -59h-539v-607h-1q-11 -75 -85 -75q-85 0 -85 87v1261q0 87 85 87h729z" />
    <glyph glyph-name="G" unicode="G" horiz-adv-x="1361" 
d="M1264 258q4 -21 4 -26q0 -16 -5 -29t-20 -34q-23 -33 -96 -74q-84 -46 -193 -75q-130 -35 -263 -35q-320 0 -518 190t-198 497q0 341 213 560q214 218 545 218q105 0 202 -22q96 -21 161 -61q44 -25 73 -61q23 -24 23 -57q0 -82 -82 -82q-34 0 -58 24q-47 58 -124 101
q-99 55 -216 55q-175 0 -305 -108q-114 -96 -178 -261q-57 -150 -57 -317q0 -246 165 -412q166 -167 404 -167q181 0 266 76q85 77 85 246q0 163 -27 193q-9 10 -29 17h-204q-57 0 -57 58q0 57 57 57h338q84 0 84 -84l4 -345q2 -22 6 -42z" />
    <glyph glyph-name="H" unicode="H" horiz-adv-x="1375" 
d="M1145 1435q87 0 87 -87l-1 -1273q-11 -75 -86 -75q-87 0 -87 87v649h-823v-661h-1q-11 -75 -86 -75q-87 0 -87 87v1261q0 87 87 87t87 -87v-495h823v495q0 87 87 87z" />
    <glyph glyph-name="I" unicode="I" horiz-adv-x="352" 
d="M145 1450q85 0 85 -89v-1299h-1q-10 -77 -84 -77q-85 0 -85 89v1287q0 89 85 89z" />
    <glyph glyph-name="J" unicode="J" horiz-adv-x="884" 
d="M748 390q0 -216 -110 -317q-96 -88 -278 -88q-166 0 -263 82q-96 82 -96 223q0 113 59 183q58 71 152 71q36 0 61 -18q26 -18 26 -45q0 -44 -17 -61q-17 -18 -74 -38q-20 -8 -49 -19q-38 -26 -38 -82q0 -80 64 -135q62 -55 152 -55q100 0 154 45q84 72 84 254v971
q0 89 86 89q87 0 87 -89v-971z" />
    <glyph glyph-name="K" unicode="K" horiz-adv-x="1110" 
d="M1057 90q0 -90 -89 -90q-63 0 -84 61l-3 12q-93 326 -417 665q-53 -52 -129 -123q-48 -44 -102 -93l-1 -447q-11 -75 -85 -75q-86 0 -86 87v1261q0 87 86 87t86 -87v-675q282 251 623 727l9 12q19 23 51 23q70 0 70 -72q0 -31 -22 -52q-232 -294 -386 -452
q126 -132 247 -302q161 -228 229 -443q3 -13 3 -24z" />
    <glyph glyph-name="L" unicode="L" horiz-adv-x="1060" 
d="M932 192q95 0 95 -96t-95 -96h-785q-86 0 -86 87v1271q0 87 86 87t86 -87l1 -1098q0 -102 33 -124q44 -30 250 -30q168 0 242 20q55 15 136 58q18 8 37 8z" />
    <glyph glyph-name="M" unicode="M" horiz-adv-x="1501" 
d="M1272 1434q87 0 87 -87l-1 -1272q-11 -75 -86 -75q-88 0 -88 87v987q-266 -573 -394 -851l-2 -2q-24 -45 -68 -45q-12 0 -26 4q-36 9 -53 42l-447 861l-1 -1030q-8 -53 -61 -53q-62 0 -62 61l3 1304q18 70 78 70q15 0 33 -4q39 -10 58 -46l498 -990l451 985q23 54 81 54z
" />
    <glyph glyph-name="N" unicode="N" horiz-adv-x="1305" 
d="M1175 76q-1 -8 -5 -17q-22 -58 -84 -58q-46 0 -73 38l-828 1129l-1 -1013v-103q-8 -52 -60 -52q-61 0 -61 61v1284q0 90 90 90q34 0 60 -24l7 -6q9 -10 11 -13l823 -1124v1106q0 61 61 61t61 -61z" />
    <glyph glyph-name="O" unicode="O" horiz-adv-x="1433" 
d="M1030 282q111 166 111 435q0 288 -128 457q-129 170 -347 170q-171 0 -285 -95q-102 -85 -152 -234q-45 -133 -45 -298q0 -282 130 -453q129 -171 343 -171q245 0 373 189zM1147 1246q190 -204 190 -529q0 -322 -189 -527t-486 -205q-295 0 -485 206t-190 526
q0 321 188 527t482 206q300 0 490 -204z" />
    <glyph glyph-name="P" unicode="P" horiz-adv-x="1106" 
d="M803 1238q-101 98 -330 98q-127 0 -168 -24q-63 -37 -64 -162v-479q113 0 204 8q154 15 251 54q189 77 189 278q0 148 -82 227zM764 621q-131 -42 -316 -56l-207 -7l-1 -483q-11 -75 -89 -75q-90 0 -90 87v1261q0 87 90 87h327q268 0 430 -101q178 -111 178 -290
q0 -321 -322 -423z" />
    <glyph glyph-name="Q" unicode="Q" horiz-adv-x="1430" 
d="M960 199q86 74 131 191q54 135 54 325q0 259 -110 428q-129 199 -374 199q-217 0 -343 -170q-125 -168 -125 -461q0 -287 131 -454t366 -167q-27 75 -38 124q-10 48 -10 90q0 33 11 52q11 18 32 18q11 0 17 -3q25 -13 34 -84q15 -77 18 -88q13 -49 38 -93q97 32 168 93z
M690 -18q-165 0 -306 59q-174 73 -273 221q-118 178 -118 447q0 322 190 531q192 210 486 210q166 0 312 -79q162 -88 254 -247q105 -180 105 -425q0 -488 -469 -687q53 -57 90 -74q65 -28 201 -28q104 0 134 -14q31 -14 31 -60q0 -90 -142 -90q-112 0 -209 48
q-120 58 -225 191z" />
    <glyph glyph-name="R" unicode="R" horiz-adv-x="1162" 
d="M240 671q116 0 209 9q192 19 296 77q139 79 139 254q0 143 -76 222q-101 103 -336 103q-127 0 -168 -24q-63 -37 -64 -162v-479zM1001 288l65 -146q9 -20 9 -40q0 -101 -102 -101q-76 0 -98 73q-104 333 -238 516q-78 -15 -170 -23l-227 -9l-1 -483q-11 -75 -89 -75
q-90 0 -90 87v1261q0 87 90 87h327q290 0 454 -118q154 -109 154 -273q0 -241 -160 -348q-48 -33 -105 -69q49 -71 89 -146q21 -39 92 -193z" />
    <glyph glyph-name="S" unicode="S" horiz-adv-x="1114" 
d="M911 717q124 -97 124 -276q0 -157 -98 -270q-81 -93 -215 -144q-110 -42 -209 -42q-171 0 -298 67q-102 53 -163 143q-51 74 -51 133q0 32 18 54q18 23 43 23q23 0 42 -29q30 -51 64 -108q66 -90 151 -132q85 -43 196 -43q162 0 267 83t105 211q0 118 -86 187
q-63 50 -177 74q-69 11 -129 21t-88 17t-75 21q-130 40 -199 123q-73 87 -73 218q0 167 118 280q127 122 340 122q67 0 135 -12t123 -32q63 -23 114 -70q29 -23 29 -60q0 -77 -77 -77q-30 0 -53 21q-110 81 -113 83q-90 47 -188 47q-121 0 -196 -67t-75 -176t66 -164
q60 -52 215 -87l49 -12q45 -9 54 -12q208 -37 310 -115z" />
    <glyph glyph-name="T" unicode="T" horiz-adv-x="1183" 
d="M1031 1435q94 0 94 -96t-94 -96q-20 0 -37 8q-81 43 -135 58q-52 14 -152 19q-42 -5 -52 -19q-15 -20 -15 -110l-2 -1124q-10 -75 -84 -75q-86 0 -86 87v1157q-2 32 -5 44q-9 32 -66 39q-97 -4 -148 -18q-54 -15 -135 -58q-17 -8 -37 -8q-94 0 -94 96t94 96h954z" />
    <glyph glyph-name="U" unicode="U" horiz-adv-x="1271" 
d="M1082 1435q60 0 60 -60v-824q0 -247 -129 -401q-138 -165 -429 -165q-301 0 -431 177q-105 144 -112 428l-1 758q0 86 84 86q85 0 85 -86v-783q10 -163 55 -266q51 -115 147 -163q75 -38 187 -38q119 0 197 34q98 43 151 141q74 141 76 309v793q0 60 60 60z" />
    <glyph glyph-name="V" unicode="V" horiz-adv-x="1245" 
d="M1201 1338q-55 -184 -60 -201q-46 -134 -112 -306q-83 -218 -160 -395q-37 -84 -80 -181q-58 -127 -97 -194q-54 -91 -83 -91q-52 0 -117 132q-279 571 -482 1202q-7 17 -7 36q0 95 94 95q67 0 90 -64q169 -587 441 -1165q78 148 166 367q204 511 261 801v1q13 60 74 60
q75 0 75 -76z" />
    <glyph glyph-name="W" unicode="W" horiz-adv-x="1685" 
d="M1644 1358q-11 -74 -97 -472q-81 -368 -154 -599q-101 -317 -173 -317q-48 0 -84 65q-7 12 -54 115q-115 236 -270 758q-11 -37 -19 -62q-20 -62 -77 -223q-62 -176 -197 -541q-30 -60 -55 -86t-49 -26q-29 0 -47 26q-38 54 -61 116q-198 543 -302 1210l-2 19q0 94 93 94
q85 0 93 -86q34 -430 263 -1111q291 709 291 1099v5q0 93 92 93t92 -93v-6q0 -413 309 -1094q80 191 145 425q51 180 87 363q44 223 44 338q0 67 66 67t66 -67v-10z" />
    <glyph glyph-name="X" unicode="X" horiz-adv-x="1103" 
d="M1045 98q0 -98 -97 -98q-83 0 -96 82h-1q-57 211 -208 379q-115 129 -150 166l-7 7l-7 -8q-213 -266 -328 -580q-16 -45 -63 -45q-67 0 -67 67q2 19 11 36q188 373 382 607q-33 40 -49 59q-56 68 -105 137q-68 96 -143 221q-96 159 -96 191l-1 18q0 98 97 98q90 0 97 -91
q9 -94 86 -212q79 -120 229 -288q219 264 323 537q15 54 65 54q67 0 67 -67q-3 -25 -17 -45q-173 -329 -370 -560q93 -101 178 -209q70 -90 137 -189q95 -141 125 -229l4 -12q4 -12 4 -26z" />
    <glyph glyph-name="Y" unicode="Y" horiz-adv-x="1112" 
d="M1099 1351q-63 -169 -242 -439q-18 -28 -41 -62q-95 -136 -181 -260l-1 -515q-11 -75 -85 -75q-86 0 -86 87v445q0 27 -51 109q-28 45 -122 182q-99 144 -149 227q-93 152 -105 175.5t-34 67.5q-11 25 -11 44q0 98 96 98q70 0 92 -67l3 -12q36 -127 122 -271q5 -8 48 -71
q53 -77 109 -155q75 -105 120 -158q307 360 408 691q13 43 56 43q59 0 59 -60q0 -9 -5 -24z" />
    <glyph glyph-name="Z" unicode="Z" horiz-adv-x="1066" 
d="M929 191q96 0 96 -95q0 -96 -96 -96l-800 1q-129 4 -129 79q0 51 52 143q21 38 75 119q65 97 154 215q85 112 180 235q79 104 99 131l72 97q71 95 116 174q44 79 44 108q0 11 -9 18q-66 10 -182 10q-171 0 -245 -21q-56 -15 -138 -58q-18 -7 -38 -7q-96 0 -96 95
q0 96 96 96h694q67 0 93 -10q40 -14 40 -58q0 -31 -18 -74q-18 -44 -62 -114q-12 -24 -95 -139q-159 -217 -202 -275q-168 -228 -250 -346q-66 -99 -92 -139q-18 -28 -24 -40q-17 -32 -25 -57l-5 -17q8 -22 21 -31q46 -30 253 -30q171 0 246 21q55 15 137 58q18 7 38 7z" />
    <glyph glyph-name="bracketleft" unicode="[" horiz-adv-x="455" 
d="M276 -139q129 -37 129 -38q0 -55 -25 -65q-14 -6 -113 -6h-49q-58 0 -81 6q-22 5 -30 25q-7 19 -7 67v1695q0 48 7 67q8 20 30 26q23 5 81 5h49q99 0 113 -6q25 -9 25 -65l-129 -38q-20 -5 -29 -33q-6 -19 -6 -88v-1430q0 -70 6 -89q9 -28 29 -33z" />
    <glyph glyph-name="backslash" unicode="\" horiz-adv-x="905" 
d="M867 -205q-12 -5 -22 -5q-23 0 -35 26l-793 1706q-5 12 -5 22q0 22 26 34q12 5 22 5q23 0 35 -26l793 -1706q5 -12 5 -22q0 -22 -26 -34z" />
    <glyph glyph-name="bracketright" unicode="]" horiz-adv-x="455" 
d="M208 -106q6 19 6 89v1430q0 69 -6 88q-9 28 -29 33l-129 38q0 56 25 65q14 6 113 6h49q58 0 81 -5q22 -6 30 -26q7 -19 7 -67v-1695q0 -48 -7 -67q-8 -20 -30 -25q-23 -6 -81 -6h-49q-99 0 -113 6q-25 10 -25 65q0 1 129 38q20 5 29 33z" />
    <glyph glyph-name="asciicircum" unicode="^" horiz-adv-x="851" 
d="M425 1198l-228 -566q-18 -43 -54 -43q-14 0 -32 7q-44 17 -44 54q0 14 7 32l290 717q14 35 49 40h24q36 -7 50 -40l290 -717q7 -17 7 -32q0 -36 -44 -54q-18 -7 -32 -7q-36 0 -54 44z" />
    <glyph glyph-name="underscore" unicode="_" horiz-adv-x="1024" 
d="M0 -100h1024v-125h-1024v125z" />
    <glyph glyph-name="grave" unicode="`" horiz-adv-x="863" 
d="M642 1110q13 -20 13 -32q0 -7 -4 -12q-10 -11 -25 -11q-20 0 -47 22q-6 5 -261 204q-76 54 -76 97q0 24 23 45q15 13 96 13q60 0 281 -326z" />
    <glyph glyph-name="a" unicode="a" horiz-adv-x="1043" 
d="M648 179q116 86 116 274l-4 119q-61 5 -115 5q-192 0 -296 -66q-114 -74 -114 -206q0 -82 58 -135q57 -52 149 -52q124 0 206 61zM814 905q113 -120 113 -385v-416q0 -77 -77 -77l-17 2q-68 10 -69 79v71q-77 -86 -153 -127q-99 -52 -226 -52q-144 0 -241 83
q-96 84 -96 208q0 193 152 289q169 108 539 108q-17 107 -94 169q-76 63 -193 63q-45 0 -76 -11q-32 -10 -97 -46q-54 -29 -72 -36t-40 -7q-25 0 -37 7q-23 13 -23 49q0 69 91 109t246 40q257 0 370 -120z" />
    <glyph glyph-name="b" unicode="b" horiz-adv-x="1128" 
d="M758 220q93 114 93 301q0 174 -85 283t-223 109q-163 0 -282 -156v-314q0 -150 67 -244q66 -93 174 -93q162 0 256 114zM916 902q116 -132 116 -348q0 -241 -148 -398q-147 -156 -378 -156q-411 0 -411 443v910q0 82 83 82t83 -82v-462q158 144 349 144q189 0 306 -133z
" />
    <glyph glyph-name="c" unicode="c" horiz-adv-x="981" 
d="M811 89q-127 -99 -291 -99q-201 0 -334 139t-133 351q0 235 144 395q145 160 359 160q133 0 231 -58q97 -58 97 -137q0 -35 -26 -60t-62 -25q-48 0 -82 42q-43 61 -57 75q-45 49 -115 49q-117 0 -189 -71q-61 -61 -89 -168q-22 -87 -22 -194q0 -161 86 -265
q87 -103 224 -103q59 0 125 24q65 24 97 57q20 21 45 46q39 36 57 36l24 -3q19 -10 19 -40q0 -67 -108 -151z" />
    <glyph glyph-name="d" unicode="d" horiz-adv-x="1093" 
d="M822 811q-112 116 -281 116q-137 0 -226 -125q-89 -124 -89 -315q0 -157 89 -261t224 -104q107 0 188 41q80 41 91 103zM987 111q-1 -81 -82 -81q-80 0 -82 81v17q-81 -64 -151 -94q-80 -34 -169 -34q-179 0 -309 123q-144 137 -144 364q0 234 137 389q137 154 346 154
h20q48 0 96 -12q76 -20 173 -74l1 409q1 82 82 82t82 -82v-1242z" />
    <glyph glyph-name="e" unicode="e" horiz-adv-x="1049" 
d="M624 562q166 74 166 212q0 75 -54 121t-146 46q-176 0 -279 -162q-83 -130 -83 -284q248 0 396 67zM904 256q21 10 38 10q31 0 47 -32q3 -7 3 -14q0 -50 -134 -139q-139 -91 -320 -91q-217 0 -352 131q-134 131 -134 344q0 247 162 409q162 161 409 161q155 0 252 -73
t97 -192q0 -85 -31 -134q-51 -97 -194 -161q-208 -78 -517 -84q13 -127 118 -201q95 -67 229 -67q76 0 178 44q88 48 149 89z" />
    <glyph glyph-name="f" unicode="f" horiz-adv-x="609" 
d="M436 1350h-5q-69 0 -90 -102q-23 -109 -23 -223h146q34 0 55 -32q3 -5 5 -11l3 -20q0 -62 -63 -62h-145v-819q0 -81 -83 -81t-83 81v819h-90q-63 0 -63 62l3 18q14 45 60 45h94q0 162 82 301q74 125 220 125q63 0 106 -31q44 -31 44 -90q0 -35 -24 -56t-66 -21
q-31 0 -47 14q-15 14 -26 53q-5 21 -10 30z" />
    <glyph glyph-name="g" unicode="g" horiz-adv-x="1154" 
d="M833 -294q98 46 98 122q0 74 -98 121t-253 47q-154 0 -252 -47t-98 -121q0 -73 98 -121t247 -48q159 0 258 47zM230 630q0 -139 91 -231t230 -92q148 0 239 89q92 89 92 234q0 142 -92 233q-90 89 -235 89q-143 0 -234 -90t-91 -232zM956 12q147 -72 147 -184
q0 -110 -147 -182q-147 -71 -376 -71q-231 0 -378 71q-146 72 -146 183q0 112 145 184q12 5 51 20q-66 38 -66 90q0 24 14 51q25 46 128 86q-79 30 -133 74q-139 116 -139 296q0 181 138 296q139 115 359 115q221 0 361 -115q140 -116 140 -298q0 -178 -140 -294
q-130 -106 -333 -115q-164 0 -187 -15q-24 -16 -24 -41t24 -41q56 -38 192 -39q227 -1 370 -71z" />
    <glyph glyph-name="h" unicode="h" horiz-adv-x="1024" 
d="M920 82q0 -82 -81 -82t-81 82v502q-1 163 -55 241q-56 80 -171 80t-186 -58q-84 -69 -84 -198v-567q0 -82 -81 -82t-81 82v1271q0 82 81 82q80 0 81 -82v-317l1 1v-138q150 135 325 135q86 0 149 -30q84 -40 128 -132q55 -110 55 -297v-493z" />
    <glyph glyph-name="i" unicode="i" horiz-adv-x="424" 
d="M297 84q0 -84 -81 -84t-81 84v858q1 84 81 84q81 0 81 -84v-858zM217 1172q-117 0 -117 95q0 96 117 96q116 0 116 -96q0 -95 -116 -95z" />
    <glyph glyph-name="j" unicode="j" horiz-adv-x="460" 
d="M234 1026q82 0 82 -83v-867q0 -503 -309 -503q-63 0 -100 29q-36 30 -36 80q0 37 25 58q24 22 65 22q28 0 44 -16q17 -15 17 -43q1 -6 1 -11q0 -23 -11 -38q8 -1 16 -1q66 0 95 73t29 321v896q0 83 82 83zM232 1172q-117 0 -117 95q0 96 117 96q116 0 116 -96
q0 -95 -116 -95z" />
    <glyph glyph-name="k" unicode="k" horiz-adv-x="938" 
d="M901 82q0 -82 -81 -82q-64 0 -79 63q-41 165 -138 286q-64 78 -157 174q-52 -38 -97 -69q-55 -39 -77 -53v-319q0 -82 -81 -82t-81 82v1271q0 82 81 82q80 0 81 -82v-831q41 28 93 68q81 62 161 141q78 77 186 268q16 36 55 36q61 0 61 -62l-5 -25q-85 -174 -268 -322
q92 -93 163 -185q54 -70 96 -139q87 -146 87 -216v-4z" />
    <glyph glyph-name="l" unicode="l" horiz-adv-x="406" 
d="M276 69q0 -84 -83 -84t-83 84v1297q0 84 83 84t83 -84v-1297z" />
    <glyph glyph-name="m" unicode="m" horiz-adv-x="1632" 
d="M1531 81q0 -81 -83 -81q-82 0 -82 81v598q0 100 -53 152q-55 55 -154 55q-116 0 -192 -60q-70 -56 -70 -152v-593q0 -81 -82 -81q-83 0 -83 81v577q0 110 -33 158q-47 70 -177 70q-108 0 -183 -68q-78 -70 -78 -164v-573q0 -81 -82 -81q-83 0 -83 81v863q0 81 83 81
q82 0 82 -81v-71q35 38 54 55q49 44 103 66q65 27 151 27q197 0 300 -167q86 90 165 130q79 41 166 41q153 0 239 -95q92 -102 92 -264v-585z" />
    <glyph glyph-name="n" unicode="n" horiz-adv-x="1033" 
d="M830 909q88 -115 88 -338l-1 -490q0 -81 -81 -81t-81 81l-1 490q0 177 -60 256q-54 71 -166 71q-98 0 -168 -45q-97 -62 -100 -197v-575q0 -81 -81 -81t-81 81v863q0 81 81 81t81 -81v-67q143 146 312 146q171 0 258 -114z" />
    <glyph glyph-name="o" unicode="o" horiz-adv-x="1170" 
d="M822 215q96 113 96 297q0 181 -96 296q-95 114 -246 114q-150 0 -245 -115q-96 -114 -96 -295q0 -177 96 -294q95 -117 240 -117q155 0 251 114zM951 888q147 -147 147 -379q0 -226 -147 -373q-147 -146 -375 -146q-231 0 -377 146q-146 147 -146 376q0 230 145 377
q145 146 375 146q232 0 378 -147z" />
    <glyph glyph-name="p" unicode="p" horiz-adv-x="1126" 
d="M770 224q88 124 88 315q0 157 -88 260q-88 104 -222 104q-106 0 -186 -41t-91 -103l-4 -544q112 -115 279 -115q136 0 224 124zM890 902q143 -136 143 -363q0 -234 -136 -388q-136 -155 -343 -155h-20q-47 0 -95 13q-75 19 -172 73l-1 -1v-426q0 -82 -81 -82t-81 82v1289
q2 81 81 81q80 0 81 -81v-47q80 64 150 94q79 34 168 34q177 0 306 -123z" />
    <glyph glyph-name="q" unicode="q" horiz-adv-x="1104" 
d="M540 95q172 0 239 97q39 59 39 184v172q0 145 -36 244q-39 107 -145 116q-37 5 -72 5q-142 0 -243 -113q-98 -111 -98 -265q0 -191 89 -315q90 -125 227 -125zM987 -350q-4 -78 -82 -78q-77 0 -81 78v428q-100 -55 -176 -74q-32 -8 -116 -12q-210 0 -347 154
q-130 146 -130 389q0 129 54 233l2 5q11 20 20 33q27 41 60 74q144 145 372 145q149 0 242 -43q146 -66 172 -237q9 -65 10 -149v-946z" />
    <glyph glyph-name="r" unicode="r" horiz-adv-x="673" 
d="M587 982q36 -44 36 -105q0 -28 -11 -44q-15 -20 -46 -20l-16 1q-9 1 -30 13q-20 12 -42 20q-23 7 -37 7q-83 0 -135 -126q-37 -92 -44 -213l-1 -2v-432q0 -81 -83 -81q-82 0 -82 81v861q0 81 82 81q83 0 83 -81v-141q112 224 242 224q48 0 84 -43z" />
    <glyph glyph-name="s" unicode="s" horiz-adv-x="880" 
d="M716 515q79 -73 79 -195q0 -141 -106 -236q-106 -94 -267 -94q-145 0 -263 84q-110 76 -110 156q0 23 17 37q17 16 45 16q24 0 51 -21q28 -20 75 -75q31 -38 83 -59q51 -23 109 -23q93 0 159 49t66 117q0 48 -24 80q-44 57 -166 86q-7 2 -31 6q-23 4 -81 18
q-123 28 -192 98q-70 70 -70 169q0 137 100 221q98 86 254 86q166 0 242 -46q40 -24 49 -35q30 -23 30 -61q0 -76 -78 -76q-33 0 -56 23q-46 41 -101 67q-56 25 -116 25q-71 0 -124 -43t-53 -102q0 -54 24 -83q34 -43 122 -64q36 -8 58 -13q36 -8 43 -12q153 -28 232 -100z
" />
    <glyph glyph-name="t" unicode="t" horiz-adv-x="627" 
d="M601 171q26 -22 26 -60q0 -51 -38 -81q-37 -30 -103 -30q-320 0 -320 514v382h-101q-65 0 -65 64t65 64h99l2 327q0 84 85 84t85 -84v-327h139q33 0 53 -26l7 -12l1 -2l2 -42q-14 -46 -63 -46h-139v-412q0 -253 30 -327q24 -60 69 -60q18 0 41 11q-3 17 -5 25q0 28 17 44
t46 16q42 0 67 -22z" />
    <glyph glyph-name="u" unicode="u" horiz-adv-x="1036" 
d="M178 115q-88 115 -88 340l1 488q0 82 81 82t81 -82v-488q1 -179 61 -258q55 -71 166 -71q98 0 168 45q97 62 100 198v574q0 82 81 82t81 -82v-833q0 -81 -81 -81t-81 81v36q-143 -146 -312 -146q-171 0 -258 115z" />
    <glyph glyph-name="v" unicode="v" horiz-adv-x="1011" 
d="M966 962q0 -135 -84 -378q-50 -144 -118 -282q-120 -243 -184 -283q-30 -19 -61 -19q-112 0 -237 240q-40 75 -113 254q-111 275 -111 450q0 81 82 81q78 0 83 -77q10 -268 151 -548q110 -217 156 -240q47 45 141 229q114 223 167 577q4 59 64 59q64 0 64 -63z" />
    <glyph glyph-name="w" unicode="w" horiz-adv-x="1520" 
d="M1397 1025q66 0 66 -65q0 -157 -96 -473q-134 -441 -250 -482q-14 -5 -28 -5q-103 0 -228 263q-51 108 -102 254q-19 -78 -104 -253q-105 -214 -161 -248q-21 -13 -42 -13q-136 0 -301 502q-94 286 -94 430v6q0 84 83 84q82 0 82 -82q1 -170 73 -407q79 -261 169 -394
q111 180 168 377q59 203 59 417q0 89 82 89t82 -86q0 -191 66 -414q64 -215 166 -383q92 110 171 369q74 247 74 442q0 72 65 72z" />
    <glyph glyph-name="x" unicode="x" horiz-adv-x="960" 
d="M847 137q22 -30 22 -57q0 -33 -35 -60q-26 -21 -50 -21q-33 0 -62 40l-295 399q-113 -126 -148 -179q-61 -95 -69 -194q-4 -60 -63 -60q-63 0 -63 64q0 75 73 184q32 49 71 99q50 66 138 168l-273 369q-22 30 -22 56q0 33 35 60q26 20 50 20q34 0 63 -39l269 -364
q93 100 124 147q63 93 73 192q5 60 62 60h2q61 -2 61 -62v-4q-1 -75 -76 -183q-33 -48 -73 -97q-41 -53 -113 -134z" />
    <glyph glyph-name="y" unicode="y" horiz-adv-x="1062" 
d="M969 969q-7 -514 -246 -965q-91 -192 -250 -323q-148 -122 -311 -122q-50 0 -84 28q-35 27 -35 67q0 32 22 49q21 18 61 18q9 0 52 -4l59 -4q108 0 199 85q99 93 158 231q-38 -15 -66 -23q-29 -7 -60 -7q-153 0 -244 173q-117 220 -148 528l-5 251q4 78 81 78
q81 0 81 -81q0 -297 39 -461q33 -142 103 -253q76 -122 166 -122q100 0 174 153q61 126 98 356q11 75 30 351q2 61 63 61q56 0 63 -57v-7z" />
    <glyph glyph-name="z" unicode="z" horiz-adv-x="868" 
d="M819 84q0 -31 -21 -55q-18 -29 -53 -29h-632q-85 0 -85 84l1 11q0 27 51 102q55 81 295 378q55 65 111 138q43 57 133 188h-282q-87 0 -144 -34q-19 -10 -40 -10q-85 0 -85 84t85 84l581 -1q74 -9 74 -83q0 -10 -3 -21l-1 -3q-2 -8 -5 -14q-7 -16 -286 -385
q-286 -377 -297 -394h335q86 0 143 34q20 10 40 10q85 0 85 -84z" />
    <glyph glyph-name="braceleft" unicode="{" horiz-adv-x="514" 
d="M350 -5q0 -189 114 -243h-6q-115 0 -188 73q-38 39 -50 103q-11 60 -11 145v358q0 73 -9 114q-9 42 -48 73q-50 45 -102 50q52 6 102 51q39 31 48 73q9 41 9 114v358q0 85 11 145q12 64 50 103q73 73 188 73h6q-114 -54 -114 -243v-381q0 -129 -35 -199q-34 -70 -140 -94
q106 -23 140 -93q35 -70 35 -199v-381z" />
    <glyph glyph-name="bar" unicode="|" horiz-adv-x="1095" 
d="M614 -342q0 -82 -62 -82q-63 0 -63 82v1851q0 82 63 82q62 0 62 -82v-1851z" />
    <glyph glyph-name="braceright" unicode="}" horiz-adv-x="514" 
d="M164 376q0 129 35 199q34 70 140 93q-106 24 -140 94q-35 70 -35 199v381q0 189 -114 243h6q115 0 188 -73q38 -39 50 -103q11 -60 11 -145v-358q0 -73 9 -114q9 -42 48 -73q50 -45 102 -51q-52 -5 -102 -50q-39 -31 -48 -73q-9 -41 -9 -114v-358q0 -85 -11 -145
q-12 -64 -50 -103q-73 -73 -188 -73h-6q114 54 114 243v381z" />
    <glyph glyph-name="asciitilde" unicode="~" horiz-adv-x="1333" 
d="M101 609q0 20 13 37q83 104 131 145q74 62 179 62q55 0 119 -17q65 -19 156 -56q94 -37 139 -51q48 -17 94 -17q73 0 119 47q23 25 73 87q19 26 49 26q60 0 60 -58q0 -20 -13 -36q-54 -65 -69 -84q-39 -44 -94 -76q-54 -31 -125 -31q-74 0 -203 50l-110 41l-65 23
q-35 12 -65 19q-32 8 -61 8q-85 0 -131 -48l-90 -109q-18 -21 -45 -21q-61 0 -61 59z" />
    <glyph glyph-name="exclamdown" unicode="&#xa1;" horiz-adv-x="582" 
d="M375 -45l5 -110q0 -95 -27 -128t-77 -33q-106 0 -106 152l61 869q5 54 7 72t11 35q9 16 27 16q25 0 33 -27t13 -85zM397 1134q0 -106 -122 -106t-122 106q0 105 122 105t122 -105z" />
    <glyph glyph-name="cent" unicode="&#xa2;" horiz-adv-x="1147" 
d="M321 489q0 -149 72 -250l313 674q-36 20 -79 20q-119 0 -193 -74q-63 -62 -91 -172q-22 -88 -22 -198zM994 275q20 -9 20 -40q0 -69 -111 -155q-130 -101 -298 -101q-121 0 -219 50l-174 -375q-12 -25 -33 -25q-10 0 -22 5q-25 12 -25 33q0 9 5 21l179 386q-30 23 -53 47
q-136 142 -136 359q0 241 148 405t367 164q64 0 120 -13l174 373q12 25 33 25q9 0 21 -5q25 -12 25 -33q0 -9 -5 -21l-170 -366q22 -10 38 -19q100 -60 100 -141q0 -36 -27 -62q-27 -25 -63 -25q-50 0 -84 44q-21 29 -36 48l-315 -680q77 -62 185 -62q61 0 128 24
q67 25 99 59q19 20 46 47q40 36 58 36z" />
    <glyph glyph-name="sterling" unicode="&#xa3;" horiz-adv-x="1159" 
d="M991 190q96 0 96 -95t-96 -95h-706q-87 0 -87 86v452h-57q-69 0 -69 69q0 68 69 68h57v383q0 392 337 392q62 0 105 -31t43 -90q0 -34 -23 -55q-24 -22 -65 -22q-31 0 -47 15q-15 14 -26 52q-5 22 -10 31q-8 16 -14 19q-13 5 -24 5q-58 0 -85 -126q-15 -72 -16 -172v-401
h129q69 0 69 -68q0 -69 -69 -69h-129v-280q0 -102 33 -124q45 -30 253 -30q82 0 157 21q55 14 137 57q18 8 38 8z" />
    <glyph glyph-name="currency" unicode="&#xa4;" horiz-adv-x="1353" 
d="M418 728q0 -259 258 -259q259 0 259 259q0 258 -259 258q-258 0 -258 -258zM1039 264l-7 6l-127 127l-6 -4q-101 -68 -223 -68q-121 0 -223 68l-6 4l-125 -123l-8 -10q-21 -19 -49 -19q-30 0 -51 21q-25 25 -25 50q0 24 23 49l5 5l128 129l-4 6q-67 101 -67 223t67 223
l4 6l-131 131q-25 26 -25 51q0 26 25 51q22 21 51 21q30 0 51 -21l131 -131l6 4q102 67 223 67q122 0 223 -67l6 -4l131 131q21 21 51 21t51 -21q26 -25 26 -51q0 -25 -26 -51l-131 -131l4 -6q67 -102 67 -223q0 -122 -67 -223l-4 -6l133 -134q23 -25 23 -49q0 -25 -25 -50
q-21 -21 -50 -21t-49 19z" />
    <glyph glyph-name="yen" unicode="&#xa5;" horiz-adv-x="1325" 
d="M1188 1353q-1 -1 -1 -2q-65 -169 -248 -439q-18 -28 -43 -62q-37 -52 -121 -170h99q70 0 70 -69t-70 -69h-163v-119h163q70 0 70 -70q0 -69 -70 -69h-163l-2 -209q-10 -75 -86 -75q-88 0 -88 87v197h-149q-70 0 -70 69q0 70 70 70h149l-2 119h-147q-70 0 -70 69t70 69h70
q-35 51 -99 143q-101 143 -153 227q-96 153 -104 168q-10 20 -39 75l-4 7q-7 18 -7 37q0 98 99 98q71 0 94 -67l3 -12q36 -127 125 -271q5 -7 49 -71q54 -77 113 -155q76 -105 123 -158q314 360 418 691q13 43 58 43q60 0 60 -60z" />
    <glyph glyph-name="brokenbar" unicode="&#xa6;" horiz-adv-x="1108" 
d="M614 727q0 -82 -62 -82q-63 0 -63 82v624q0 82 63 82q62 0 62 -82v-624zM614 -336q0 -82 -62 -82q-63 0 -63 82v624q0 82 63 82q62 0 62 -82v-624z" />
    <glyph glyph-name="section" unicode="&#xa7;" horiz-adv-x="1330" 
d="M1001 825q4 28 4 52q0 80 -48 115q-64 46 -161 77l-230 75l-127 50q-100 -104 -133 -188q-17 -44 -17 -80q0 -67 58 -106q64 -44 160 -74l197 -62q93 -28 188 -83q101 171 109 224zM1039 1128q127 -82 127 -216q0 -68 -32 -149q-18 -43 -154 -224q62 -52 88 -109
q42 -90 42 -172q0 -130 -107 -238q-65 -61 -147 -96q-125 -54 -260 -54q-447 0 -447 209q0 103 76 103h6q50 0 132 -103q32 -40 61 -64q68 -56 172 -56q343 0 343 266q0 196 -276 289l-209 71q-98 32 -169 72q-57 33 -99 91q-52 73 -52 165q0 60 22 127q43 129 178 219
q-53 50 -87 110q-45 78 -45 148q0 54 27 102q39 76 105 124q127 97 330 97q86 0 181 -19q94 -18 164 -52q23 -11 35 -24q7 -9 14 -23l4 -13q5 -13 5 -24q0 -82 -82 -82q-40 0 -67 30q-34 41 -69 70q-72 59 -185 59q-59 0 -118 -23q-48 -19 -98 -70q-83 -84 -83 -157
q0 -77 93 -141q66 -48 177 -84l191 -63q139 -48 213 -96z" />
    <glyph glyph-name="dieresis" unicode="&#xa8;" horiz-adv-x="995" 
d="M345 1151q-117 0 -117 95q0 96 117 96q116 0 116 -96q0 -95 -116 -95zM707 1151q-117 0 -117 95q0 96 117 96q116 0 116 -96q0 -95 -116 -95z" />
    <glyph glyph-name="copyright" unicode="&#xa9;" horiz-adv-x="1795" 
d="M1370 305q155 177 155 412q0 260 -184 444t-443 184q-222 0 -394 -138q-234 -189 -234 -490q0 -188 103 -344q186 -283 525 -283q285 0 472 215zM1426 1246q219 -219 219 -529q0 -280 -184 -491q-224 -256 -563 -256q-403 0 -625 337q-123 186 -123 410q0 359 279 583
q205 165 469 165q309 0 528 -219zM1249 485q10 -11 10 -23q0 -39 -46 -87q-49 -50 -127 -83q-89 -38 -186 -38q-202 0 -320 132q-112 126 -112 324q0 209 129 344t330 135q78 0 169 -26q77 -23 100 -43q25 -18 25 -48q0 -60 -59 -60q-25 0 -43 18q-44 42 -73 58
q-65 36 -140 36q-134 0 -223 -114q-88 -115 -88 -287q0 -177 89 -284q89 -108 235 -108q69 0 133 26q64 25 103 68q20 30 32 44q21 27 42 27q10 0 20 -11z" />
    <glyph glyph-name="ordfeminine" unicode="&#xaa;" horiz-adv-x="849" 
d="M527 793q89 66 89 210l-3 109q-213 0 -315 -65q-87 -56 -87 -157q0 -63 45 -104q43 -40 114 -40q95 0 157 47zM654 1349q87 -92 87 -295v-318q0 -59 -59 -59l-13 1q-52 8 -53 61v54q-59 -66 -117 -97q-76 -40 -173 -40q-110 0 -184 64t-74 159q0 148 116 221
q130 83 413 83q-13 82 -72 129q-58 49 -148 49q-34 0 -58 -9q-24 -7 -74 -35q-41 -22 -55 -28q-14 -5 -31 -5q-19 0 -28 5q-18 10 -18 38q0 53 70 83q70 31 188 31q197 0 283 -92z" />
    <glyph glyph-name="guillemotleft" unicode="&#xab;" horiz-adv-x="1020" 
d="M503 164l-270 270l-1 2q-18 22 -18 42q0 19 16 37l5 5l268 268q17 17 41 17q23 0 40 -17q17 -16 17 -40t-17 -41l-231 -231l231 -231q17 -17 17 -41q0 -23 -17 -40q-16 -17 -40 -17t-41 17zM793 164l-270 270l-1 2q-18 22 -18 42q0 19 16 37l5 5l268 268q17 17 41 17
q23 0 40 -17q17 -16 17 -40t-17 -41l-231 -231l231 -231q17 -17 17 -41q0 -23 -17 -40q-16 -17 -40 -17t-41 17z" />
    <glyph glyph-name="logicalnot" unicode="&#xac;" horiz-adv-x="1094" 
d="M907 778q81 0 81 -80v-272q0 -80 -81 -80q-80 0 -80 80v230h-660q-81 0 -81 59q0 63 81 63h740z" />
    <glyph glyph-name="registered" unicode="&#xae;" horiz-adv-x="1795" 
d="M1370 305q155 177 155 412q0 260 -184 444t-443 184q-222 0 -394 -138q-234 -189 -234 -490q0 -188 103 -344q186 -283 525 -283q285 0 472 215zM1426 1246q219 -219 219 -529q0 -280 -184 -491q-224 -256 -563 -256q-403 0 -625 337q-123 186 -123 410q0 359 279 583
q205 165 469 165q309 0 528 -219zM719 728q211 25 302 77q91 51 91 140q0 72 -62 112q-62 39 -178 39q-101 0 -130 -20q-23 -17 -23 -73v-275zM1231 337q0 -62 -62 -62q-47 0 -60 45q-79 259 -186 370q-54 -14 -90 -19q-52 -9 -114 -14l-2 -336q-7 -47 -53 -47q-54 0 -54 54
v782q0 54 54 54h230q166 0 248 -42q94 -48 94 -157q0 -81 -49 -140q-49 -58 -153 -104q25 -33 42 -58q30 -44 54 -90l96 -211q5 -12 5 -25z" />
    <glyph glyph-name="macron" unicode="&#xaf;" horiz-adv-x="842" 
d="M640 1282h-437q-71 0 -71 76t71 76h437q71 0 71 -76t-71 -76z" />
    <glyph glyph-name="degree" unicode="&#xb0;" horiz-adv-x="723" 
d="M493 1000q57 55 57 135q0 73 -50 127q-55 60 -137 60q-78 0 -133 -55q-54 -55 -54 -132q0 -65 39 -115q56 -72 148 -72q75 0 130 52zM585 1340q81 -87 81 -205q0 -129 -93 -218q-88 -85 -210 -85q-148 0 -239 117q-64 82 -64 186q0 125 89 214q88 88 214 88
q132 0 222 -97z" />
    <glyph glyph-name="plusminus" unicode="&#xb1;" horiz-adv-x="1358" 
d="M1137 854q71 0 71 -72q0 -71 -71 -71h-387v-387q0 -71 -71 -71q-72 0 -72 71v387h-386q-71 0 -71 71q0 72 71 72h386v386q0 71 72 71q71 0 71 -71v-386h387zM1140 0h-922q-68 0 -68 72q0 71 68 71h922q68 0 68 -71q0 -72 -68 -72z" />
    <glyph glyph-name="uni00B2" unicode="&#xb2;" horiz-adv-x="755" 
d="M596 758q51 0 51 -51t-51 -51h-434q-49 0 -49 34q0 31 40 90q32 49 145 163q15 14 45 43q42 40 73 71q40 39 44 44q32 36 50 78t18 82q0 55 -39 90t-100 35q-59 0 -107 -34q-49 -35 -49 -78q0 -10 17 -28q16 -19 16 -41q0 -11 -5 -21q-2 -11 -13 -20q-13 -12 -31 -12
q-30 0 -51 25q-20 26 -20 63q0 83 75 142t180 59q98 0 160 -55q62 -54 62 -141q0 -109 -114 -214q-219 -203 -274 -277q-4 -6 -4 -11q0 -8 9 -15q23 -16 134 -16q90 0 130 12q29 8 72 30q10 4 20 4z" />
    <glyph glyph-name="uni00B3" unicode="&#xb3;" horiz-adv-x="684" 
d="M527 1015q49 -49 49 -128q0 -100 -75 -164q-78 -67 -206 -67q-101 0 -164 43t-63 112q0 30 13 49q9 12 22 17l2 1q9 3 17 3q49 0 51 -51q1 -71 31 -96q37 -32 93 -32q78 0 128 49q49 49 49 129q0 81 -46 126q-42 43 -109 43h-62q-14 0 -25 7q-10 7 -10 15q0 13 14 21
q13 7 48 12q99 14 139 65q26 35 26 89q0 61 -36 98q-37 37 -97 37q-45 0 -83 -25q-22 -15 -22 -85q0 -16 -10 -29q-3 -6 -10 -11q-13 -11 -29 -11q-13 0 -24 6q-28 14 -28 45v8q0 61 64 105q64 45 152 45q95 0 159 -52q63 -52 63 -131q0 -132 -174 -174q104 -22 153 -69z
" />
    <glyph glyph-name="acute" unicode="&#xb4;" horiz-adv-x="863" 
d="M221 1110q221 326 281 326q82 0 97 -13q23 -21 23 -45q0 -43 -76 -97q-255 -199 -261 -204q-27 -22 -48 -22q-14 0 -25 11q-4 5 -4 12q0 12 13 32z" />
    <glyph glyph-name="mu" unicode="&#xb5;" horiz-adv-x="1022" 
d="M840 1025q82 0 82 -82v-832q-1 -81 -82 -81q-80 0 -81 81v36q-143 -146 -312 -146q-108 0 -183 45v-392q0 -83 -82 -83t-82 83v1288q0 83 82 83q34 0 58 -24t24 -59v-487q0 -179 60 -257q55 -72 167 -72q98 0 168 45q97 62 100 198v574q0 82 81 82z" />
    <glyph glyph-name="paragraph" unicode="&#xb6;" horiz-adv-x="1108" 
d="M590 1324h-56q-139 0 -220 -51q-80 -52 -80 -183q0 -96 50 -169t131 -117t175 -57v577zM985 1321v-1212q0 -61 -18 -83q-22 -26 -55 -26q-30 0 -52 20q-22 23 -22 83v1221h-101v-1215q0 -61 -17 -83q-24 -26 -57 -26q-29 0 -52 20q-21 23 -21 83v563q-106 5 -208 29
t-189 74q-88 50 -140 131q-53 80 -53 191q0 81 29 152q29 72 89 118q95 74 295 74h653q36 0 56 -10q20 -11 20 -44q0 -37 -21 -48q-20 -12 -58 -12h-78z" />
    <glyph glyph-name="periodcentered" unicode="&#xb7;" horiz-adv-x="627" 
d="M147 718q0 64 47 115t121 51q73 0 119.5 -51.5t46.5 -114.5q0 -64 -47 -116t-120 -52q-74 0 -120.5 52t-46.5 116z" />
    <glyph glyph-name="periodcentered" unicode="&#x2219;" horiz-adv-x="627" 
d="M147 718q0 64 47 115t121 51q73 0 119.5 -51.5t46.5 -114.5q0 -64 -47 -116t-120 -52q-74 0 -120.5 52t-46.5 116z" />
    <glyph glyph-name="cedilla" unicode="&#xb8;" horiz-adv-x="1135" 
d="M646 -107q35 7 64 7q75 0 120 -42q44 -41 44 -111q0 -75 -51 -121q-50 -46 -131 -52q-10 -1 -20 -1q-36 0 -76 9q-94 19 -203 71q-27 13 -27 36q0 9 4 19q9 23 28 23q11 0 24 -7q66 -33 129 -52q52 -15 100 -15q46 0 72 22q25 22 25 62q0 41 -26 65q-27 24 -74 24
q-21 0 -29 -1h-5q-29 0 -30 34v137h62v-107z" />
    <glyph glyph-name="uni00B9" unicode="&#xb9;" horiz-adv-x="500" 
d="M392 700q0 -44 -44 -44q-45 0 -45 44v651q-98 -73 -175 -189l-1 -1q-10 -13 -26 -13q-32 0 -32 32q1 11 9 22q78 107 189 198q49 39 80 41q45 0 45 -44v-697z" />
    <glyph glyph-name="ordmasculine" unicode="&#xba;" horiz-adv-x="694" 
d="M204 782q37 -75 122 -75q65 0 102 42q33 37 47 111q12 63 12 161q0 207 -40 291q-36 79 -121 79q-93 0 -128 -89q-31 -78 -31 -278q0 -168 37 -242zM514 1349q72 -101 72 -303q0 -89 -16 -162q-23 -100 -74 -157q-64 -71 -168 -71q-125 0 -193 101q-67 102 -67 292
q0 186 67 289t188 103q124 0 191 -92z" />
    <glyph glyph-name="guillemotright" unicode="&#xbb;" horiz-adv-x="1020" 
d="M476 147q-24 0 -40 17q-17 17 -17 40q0 24 17 41l231 231l-231 231q-17 17 -17 41t17 40q17 17 40 17q24 0 41 -17l268 -268l5 -5q16 -18 16 -37q0 -20 -18 -42l-1 -2l-270 -270q-17 -17 -41 -17zM186 147q-24 0 -40 17q-17 17 -17 40q0 24 17 41l231 231l-231 231
q-17 17 -17 41t17 40q17 17 40 17q24 0 41 -17l268 -268l5 -5q16 -18 16 -37q0 -20 -18 -42l-1 -2l-270 -270q-17 -17 -41 -17z" />
    <glyph glyph-name="onequarter" unicode="&#xbc;" horiz-adv-x="1468" 
d="M250 -205q-26 12 -26 34q0 10 5 22l793 1706q12 26 35 26q10 0 22 -5q26 -12 26 -34q0 -10 -5 -22l-793 -1706q-12 -26 -35 -26q-10 0 -22 5zM392 700q0 -44 -44 -44q-45 0 -45 44v651q-98 -73 -175 -189l-1 -1q-10 -13 -26 -13q-32 0 -32 32q0 9 9 22q78 107 189 198
q49 39 80 41q45 0 45 -44v-697zM1137 284l1 411q-195 -145 -283 -411h282zM1344 278q16 -5 16 -29q0 -21 -12 -27t-51 -6h-71v-172q0 -44 -45 -44q-44 0 -44 44v172h-319q-24 0 -34 8q-9 7 -9 25q0 34 20 82q108 251 307 413q48 39 79 41q45 0 45 -44v-457h49q54 0 69 -6z
" />
    <glyph glyph-name="onehalf" unicode="&#xbd;" horiz-adv-x="1515" 
d="M250 -205q-26 12 -26 34q0 10 5 22l793 1706q12 26 35 26q10 0 22 -5q26 -12 26 -34q0 -10 -5 -22l-793 -1706q-12 -26 -35 -26q-10 0 -22 5zM392 700q0 -44 -44 -44q-45 0 -45 44v651q-98 -73 -176 -190q-10 -13 -26 -13q-32 0 -32 32q1 10 9 22q78 107 189 198
q49 39 80 41q45 0 45 -44v-697zM1356 102q51 0 51 -51t-51 -51h-434q-49 0 -49 34q0 31 40 90q32 49 145 163q15 14 45 43q42 40 73 71q40 39 44 44q32 36 50 78t18 82q0 55 -39 90t-100 35q-59 0 -107 -34q-49 -35 -49 -78q0 -10 17 -28q16 -19 16 -41q0 -11 -5 -21
q-2 -11 -13 -20q-13 -12 -31 -12q-30 0 -51 25q-20 26 -20 63q0 83 75 142t180 59q98 0 160 -55q62 -54 62 -141q0 -109 -114 -214q-219 -203 -274 -277q-4 -6 -4 -11q0 -8 9 -15q23 -16 134 -16q90 0 130 12q29 8 72 30q10 4 20 4z" />
    <glyph glyph-name="threequarters" unicode="&#xbe;" horiz-adv-x="1568" 
d="M350 -205q-26 12 -26 34q0 10 5 22l793 1706q12 26 35 26q10 0 22 -5q26 -12 26 -34q0 -10 -5 -22l-793 -1706q-12 -26 -35 -26q-10 0 -22 5zM1237 284l1 411q-195 -145 -283 -411h282zM1444 278q16 -5 16 -29q0 -21 -12 -27t-51 -6h-71v-172q0 -44 -45 -44q-44 0 -44 44
v172h-319q-24 0 -34 8q-9 7 -9 25q0 34 20 82q108 251 307 413q48 39 79 41q45 0 45 -44v-457h49q54 0 69 -6zM527 1015q49 -49 49 -128q0 -100 -75 -164q-78 -67 -206 -67q-101 0 -164 43t-63 112q0 30 13 49q9 12 22 17l2 1q9 3 17 3q49 0 51 -51q1 -71 31 -96
q37 -32 93 -32q78 0 128 49q49 49 49 129q0 81 -46 126q-42 43 -109 43h-62q-14 0 -25 7q-10 7 -10 15q0 13 14 21q13 7 48 12q99 14 139 65q26 35 26 89q0 61 -36 98q-37 37 -97 37q-45 0 -83 -25q-22 -15 -22 -85q0 -16 -10 -29q-3 -6 -10 -11q-13 -11 -29 -11
q-13 0 -24 6q-28 14 -28 45v8q0 61 64 105q64 45 152 45q95 0 159 -52q63 -52 63 -131q0 -132 -174 -174q104 -22 153 -69z" />
    <glyph glyph-name="questiondown" unicode="&#xbf;" horiz-adv-x="824" 
d="M105 -214q-105 109 -105 291q0 177 91 291q85 107 275 185q45 19 58 49q12 31 12 103v49q0 35 8 50q11 22 39 22q42 0 42 -98v-93q0 -111 -11 -136q-10 -24 -68 -54q-98 -47 -143 -79q-74 -52 -110 -119q-44 -80 -44 -195q0 -135 70 -214q69 -79 189 -79q76 0 124 31
q47 31 47 82l-6 80q0 39 26 63q26 25 68 25q40 0 68 -25q27 -25 27 -63q0 -113 -111 -194q-112 -81 -266 -81q-175 0 -280 109zM468 1022q-126 0 -126 105t126 105t126 -105t-126 -105z" />
    <glyph glyph-name="Agrave" unicode="&#xc0;" 
d="M837 613q-125 335 -258 616q-79 -151 -166 -367q-50 -125 -95 -249h519zM1199 131q7 -18 7 -36q0 -95 -95 -95q-67 0 -89 64q-52 179 -145 437h-598q-97 -284 -128 -441q-12 -60 -73 -60q-76 0 -76 76l3 21q55 184 60 201q46 133 113 306q82 219 160 395q37 85 80 181
q58 127 98 194q54 91 83 91q52 0 117 -132q280 -571 483 -1202zM606 1550q13 -20 13 -32q0 -7 -4 -12q-10 -11 -25 -11q-20 0 -47 22q-6 5 -261 204q-76 54 -76 97q0 24 23 45q15 13 96 13q60 0 281 -326z" />
    <glyph glyph-name="Aacute" unicode="&#xc1;" 
d="M837 613q-125 335 -258 616q-79 -151 -166 -367q-50 -125 -95 -249h519zM1199 131q7 -18 7 -36q0 -95 -95 -95q-67 0 -89 64q-52 179 -145 437h-598q-97 -284 -128 -441q-12 -60 -73 -60q-76 0 -76 76l3 21q55 184 60 201q46 133 113 306q82 219 160 395q37 85 80 181
q58 127 98 194q54 91 83 91q52 0 117 -132q280 -571 483 -1202zM579 1550q221 326 281 326q82 0 97 -13q23 -21 23 -45q0 -43 -76 -97q-255 -199 -261 -204q-27 -22 -48 -22q-14 0 -25 11q-4 5 -4 12q0 12 13 32z" />
    <glyph glyph-name="Acircumflex" unicode="&#xc2;" 
d="M927 1550q14 -19 14 -32q0 -7 -5 -12q-11 -11 -26 -11q-21 0 -49 22q-5 4 -254 192q-250 -188 -255 -192q-28 -22 -49 -22q-15 0 -26 11q-5 5 -5 12q0 13 14 32q226 321 282 326h77q56 -5 282 -326zM837 613q-125 335 -258 616q-79 -151 -166 -367q-50 -125 -95 -249h519
zM1199 131q7 -18 7 -36q0 -95 -95 -95q-67 0 -89 64q-52 179 -145 437h-598q-97 -284 -128 -441q-12 -60 -73 -60q-76 0 -76 76l3 21q55 184 60 201q46 133 113 306q82 219 160 395q37 85 80 181q58 127 98 194q54 91 83 91q52 0 117 -132q280 -571 483 -1202z" />
    <glyph glyph-name="Atilde" unicode="&#xc3;" 
d="M837 613q-125 335 -258 616q-79 -151 -166 -367q-50 -125 -95 -249h519zM1199 131q7 -18 7 -36q0 -95 -95 -95q-67 0 -89 64q-52 179 -145 437h-598q-97 -284 -128 -441q-12 -60 -73 -60q-76 0 -76 76l3 21q55 184 60 201q46 133 113 306q82 219 160 395q37 85 80 181
q58 127 98 194q54 91 83 91q52 0 117 -132q280 -571 483 -1202zM356 1524q-15 -29 -32 -29q-5 0 -10 3q-17 8 -17 25q0 3 1 7l2 10q29 100 62 144q50 66 137 66h3q32 0 107 -19q8 -2 51 -13l53 -12q28 -6 35 -6q36 0 59 20q7 7 41 72q15 29 32 29q5 0 10 -3q18 -8 18 -26
q0 -3 -1 -7l-3 -9q-28 -100 -62 -144q-50 -67 -137 -67h-3q-32 0 -106 19q-9 2 -52 14l-53 11q-27 6 -35 7q-36 0 -59 -21q-7 -7 -41 -71z" />
    <glyph glyph-name="Adieresis" unicode="&#xc4;" 
d="M837 613q-125 335 -258 616q-79 -151 -166 -367q-50 -125 -95 -249h519zM1199 131q7 -18 7 -36q0 -95 -95 -95q-67 0 -89 64q-52 179 -145 437h-598q-97 -284 -128 -441q-12 -60 -73 -60q-76 0 -76 76l3 21q55 184 60 201q46 133 113 306q82 219 160 395q37 85 80 181
q58 127 98 194q54 91 83 91q52 0 117 -132q280 -571 483 -1202zM415 1582q-117 0 -117 95q0 96 117 96q116 0 116 -96q0 -95 -116 -95zM777 1582q-117 0 -117 95q0 96 117 96q116 0 116 -96q0 -95 -116 -95z" />
    <glyph glyph-name="Aring" unicode="&#xc5;" 
d="M837 613q-125 335 -258 616q-79 -151 -166 -367q-50 -125 -95 -249h519zM505 1524q0 -45 30.5 -72t67.5 -27t67.5 27t30.5 72q0 43 -31 70t-67 27t-67 -27t-31 -70zM705 1354q6 -10 11 -21q280 -571 483 -1202q7 -18 7 -36q0 -95 -95 -95q-67 0 -89 64q-52 179 -145 437
h-598q-97 -284 -128 -441q-12 -60 -73 -60q-76 0 -76 76l3 21q55 184 60 201q46 133 113 306q82 219 160 395q37 85 80 181q50 108 86 173q-24 13 -43 34q-56 58 -56 137q0 78 55.5 136t142.5 58q89 0 145 -58.5t56 -135.5q0 -79 -56 -137q-19 -20 -43 -33z" />
    <glyph glyph-name="AE" unicode="&#xc6;" horiz-adv-x="1933" 
d="M914 1323q-33 0 -113 -99q-52 -64 -136 -188q-66 -98 -127 -195h376v482zM1813 186q93 0 93 -93t-93 -93h-811q-87 0 -87 88l-3 622l-419 1q-34 -1 -51 -29q-131 -211 -313 -643q-17 -39 -62 -39q-65 0 -65 65q0 13 5 26q275 710 700 1214q59 71 104 100q40 27 99 27
l835 3q96 0 96 -96t-96 -96q-20 0 -38 8q-82 43 -137 58q-75 20 -245 20h-236v-489h575q59 0 59 -59t-59 -59h-575v-460q4 -87 28 -115q28 -33 127 -33h212q214 0 318 63q19 9 39 9z" />
    <glyph glyph-name="Ccedilla" unicode="&#xc7;" horiz-adv-x="1269" 
d="M646 -15v-92q35 7 64 7q75 0 120 -42q44 -41 44 -111q0 -75 -51 -121q-50 -46 -131 -52q-10 -1 -20 -1q-36 0 -76 9q-94 19 -203 71q-27 13 -27 36q0 9 4 19q9 23 28 23q11 0 24 -7q66 -33 129 -52q52 -15 100 -15q46 0 72 22q25 22 25 62q0 41 -26 65q-27 24 -74 24
q-21 0 -29 -1h-5q-29 0 -30 34v126q-253 26 -411 204q-174 196 -174 508q0 326 201 537q202 212 515 212q122 0 264 -41q120 -35 157 -67q38 -28 38 -75q0 -93 -93 -93q-38 0 -65 27q-69 65 -116 92q-100 56 -218 56q-208 0 -347 -179q-138 -180 -138 -451q0 -276 139 -444
q140 -169 368 -169q107 0 207 40q100 39 160 107q31 48 50 70q33 42 65 42q16 0 32 -18t16 -36q0 -62 -72 -136q-77 -79 -198 -131q-138 -59 -291 -59h-27z" />
    <glyph glyph-name="Egrave" unicode="&#xc8;" horiz-adv-x="1103" 
d="M981 186q95 0 95 -93t-95 -93h-831q-89 0 -89 87l-1 1261q0 87 89 87h762q98 0 98 -96t-98 -96q-20 0 -39 8q-84 43 -141 58q-76 20 -251 20q-117 0 -185 -9q-8 -4 -14 -8q-37 -26 -42 -106v-366h589q60 0 60 -59t-60 -59h-589l1 -460q3 -88 28 -115q28 -33 130 -33h217
q219 0 325 63q20 9 41 9zM576 1550q13 -20 13 -32q0 -7 -4 -12q-10 -11 -25 -11q-20 0 -47 22q-6 5 -261 204q-76 54 -76 97q0 24 23 45q15 13 96 13q60 0 281 -326z" />
    <glyph glyph-name="Eacute" unicode="&#xc9;" horiz-adv-x="1103" 
d="M981 186q95 0 95 -93t-95 -93h-831q-89 0 -89 87l-1 1261q0 87 89 87h762q98 0 98 -96t-98 -96q-20 0 -39 8q-84 43 -141 58q-76 20 -251 20q-117 0 -185 -9q-8 -4 -14 -8q-37 -26 -42 -106v-366h589q60 0 60 -59t-60 -59h-589l1 -460q3 -88 28 -115q28 -33 130 -33h217
q219 0 325 63q20 9 41 9zM519 1550q221 326 281 326q82 0 97 -13q23 -21 23 -45q0 -43 -76 -97q-255 -199 -261 -204q-27 -22 -48 -22q-14 0 -25 11q-4 5 -4 12q0 12 13 32z" />
    <glyph glyph-name="Ecircumflex" unicode="&#xca;" horiz-adv-x="1103" 
d="M981 186q95 0 95 -93t-95 -93h-831q-89 0 -89 87l-1 1261q0 87 89 87h762q98 0 98 -96t-98 -96q-20 0 -39 8q-84 43 -141 58q-76 20 -251 20q-117 0 -185 -9q-8 -4 -14 -8q-37 -26 -42 -106v-366h589q60 0 60 -59t-60 -59h-589l1 -460q3 -88 28 -115q28 -33 130 -33h217
q219 0 325 63q20 9 41 9zM897 1550q14 -19 14 -32q0 -7 -5 -12q-11 -11 -26 -11q-21 0 -49 22q-5 4 -254 192q-250 -188 -255 -192q-28 -22 -49 -22q-15 0 -26 11q-5 5 -5 12q0 13 14 32q226 321 282 326h77q56 -5 282 -326z" />
    <glyph glyph-name="Edieresis" unicode="&#xcb;" horiz-adv-x="1086" 
d="M966 187q93 0 93 -93q0 -94 -93 -94h-817q-88 0 -88 88l-1 1268q0 88 88 88h749q96 0 96 -97t-96 -97q-20 0 -38 8q-83 43 -139 59q-75 20 -247 20q-115 0 -182 -10q-8 -3 -13 -7q-37 -26 -42 -107v-368h579q60 0 60 -59q0 -60 -60 -60h-579l1 -463q3 -88 27 -116
q28 -33 128 -33h214q215 0 320 64q19 9 40 9zM345 1582q-117 0 -117 95q0 96 117 96q116 0 116 -96q0 -95 -116 -95zM707 1582q-117 0 -117 95q0 96 117 96q116 0 116 -96q0 -95 -116 -95z" />
    <glyph glyph-name="Igrave" unicode="&#xcc;" horiz-adv-x="654" 
d="M447 1450q85 0 85 -89v-1299h-1q-10 -77 -84 -77q-85 0 -85 89v1287q0 89 85 89zM460 1550q13 -20 13 -32q0 -7 -4 -12q-10 -11 -25 -11q-20 0 -47 22q-6 5 -261 204q-76 54 -76 97q0 24 23 45q15 13 96 13q60 0 281 -326z" />
    <glyph glyph-name="Iacute" unicode="&#xcd;" horiz-adv-x="655" 
d="M145 1450q85 0 85 -89v-1299h-1q-10 -77 -84 -77q-85 0 -85 89v1287q0 89 85 89zM132 1550q221 326 281 326q82 0 97 -13q23 -21 23 -45q0 -43 -76 -97q-255 -199 -261 -204q-27 -22 -48 -22q-14 0 -25 11q-4 5 -4 12q0 12 13 32z" />
    <glyph glyph-name="Icircumflex" unicode="&#xce;" horiz-adv-x="851" 
d="M390 1450q85 0 85 -89v-1299h-1q-10 -77 -84 -77q-85 0 -85 89v1287q0 89 85 89zM715 1550q14 -19 14 -32q0 -7 -5 -12q-11 -11 -26 -11q-21 0 -49 22q-5 4 -254 192q-250 -188 -255 -192q-28 -22 -49 -22q-15 0 -26 11q-5 5 -5 12q0 13 14 32q226 321 282 326h77
q56 -5 282 -326z" />
    <glyph glyph-name="Idieresis" unicode="&#xcf;" horiz-adv-x="777" 
d="M367 1450q85 0 85 -89v-1299h-1q-10 -77 -84 -77q-85 0 -85 89v1287q0 89 85 89zM177 1582q-117 0 -117 95q0 96 117 96q116 0 116 -96q0 -95 -116 -95zM539 1582q-117 0 -117 95q0 96 117 96q116 0 116 -96q0 -95 -116 -95z" />
    <glyph glyph-name="Eth" unicode="&#xd0;" horiz-adv-x="1674" 
d="M1168 237q183 163 183 479q0 172 -48 295q-59 150 -188 232q-150 93 -394 93q-109 0 -139 -38q-33 -43 -36 -193v-318h308q69 0 69 -70q0 -69 -69 -69h-308v-379q3 -102 41 -136q41 -36 169 -36q254 0 412 140zM1346 1240q206 -195 206 -539q0 -333 -222 -520
q-214 -181 -578 -181h-292q-87 0 -87 87v561h-304q-69 0 -69 69q0 70 69 70h304v561q0 82 82 86l325 1q361 0 566 -195z" />
    <glyph glyph-name="Ntilde" unicode="&#xd1;" horiz-adv-x="1305" 
d="M1175 76q-1 -8 -5 -17q-22 -58 -84 -58q-46 0 -73 38l-828 1129l-1 -1013v-103q-8 -52 -60 -52q-61 0 -61 61v1284q0 90 90 90q34 0 60 -24l7 -6q9 -10 11 -13l823 -1124v1106q0 61 61 61t61 -61zM379 1524q-15 -29 -32 -29q-5 0 -10 3q-17 8 -17 25q0 3 1 7l2 10
q29 100 62 144q50 66 137 66h3q32 0 107 -19q8 -2 51 -13l53 -12q28 -6 35 -6q36 0 59 20q7 7 41 72q15 29 32 29q5 0 10 -3q18 -8 18 -26q0 -3 -1 -7l-3 -9q-28 -100 -62 -144q-50 -67 -137 -67h-3q-32 0 -106 19q-9 2 -52 14l-53 11q-27 6 -35 7q-36 0 -59 -21
q-7 -7 -41 -71z" />
    <glyph glyph-name="Ograve" unicode="&#xd2;" horiz-adv-x="1433" 
d="M1030 282q111 166 111 435q0 288 -128 457q-129 170 -347 170q-171 0 -285 -95q-102 -85 -152 -234q-45 -133 -45 -298q0 -282 130 -453q129 -171 343 -171q245 0 373 189zM1147 1246q190 -204 190 -529q0 -322 -189 -527t-486 -205q-295 0 -485 206t-190 526
q0 321 188 527t482 206q300 0 490 -204zM678 1550q13 -20 13 -32q0 -7 -4 -12q-10 -11 -25 -11q-20 0 -47 22q-6 5 -261 204q-76 54 -76 97q0 24 23 45q15 13 96 13q60 0 281 -326z" />
    <glyph glyph-name="Oacute" unicode="&#xd3;" horiz-adv-x="1433" 
d="M1030 282q111 166 111 435q0 288 -128 457q-129 170 -347 170q-171 0 -285 -95q-102 -85 -152 -234q-45 -133 -45 -298q0 -282 130 -453q129 -171 343 -171q245 0 373 189zM1147 1246q190 -204 190 -529q0 -322 -189 -527t-486 -205q-295 0 -485 206t-190 526
q0 321 188 527t482 206q300 0 490 -204zM631 1550q221 326 281 326q82 0 97 -13q23 -21 23 -45q0 -43 -76 -97q-255 -199 -261 -204q-27 -22 -48 -22q-14 0 -25 11q-4 5 -4 12q0 12 13 32z" />
    <glyph glyph-name="Ocircumflex" unicode="&#xd4;" horiz-adv-x="1433" 
d="M988 1550q14 -19 14 -32q0 -7 -5 -12q-11 -11 -26 -11q-21 0 -49 22q-5 4 -254 192q-250 -188 -255 -192q-28 -22 -49 -22q-15 0 -26 11q-5 5 -5 12q0 13 14 32q226 321 282 326h77q56 -5 282 -326zM1030 282q111 166 111 435q0 288 -128 457q-129 170 -347 170
q-171 0 -285 -95q-102 -85 -152 -234q-45 -133 -45 -298q0 -282 130 -453q129 -171 343 -171q245 0 373 189zM1147 1246q190 -204 190 -529q0 -322 -189 -527t-486 -205q-295 0 -485 206t-190 526q0 321 188 527t482 206q300 0 490 -204z" />
    <glyph glyph-name="Otilde" unicode="&#xd5;" horiz-adv-x="1433" 
d="M415 1524q-15 -29 -32 -29q-5 0 -10 3q-17 8 -17 25q0 3 1 7l2 10q29 100 62 144q50 66 137 66h3q32 0 107 -19q8 -2 51 -13l53 -12q28 -6 35 -6q36 0 59 20q7 7 41 72q15 29 32 29q5 0 10 -3q18 -8 18 -26q0 -3 -1 -7l-3 -9q-28 -100 -62 -144q-50 -67 -137 -67h-3
q-32 0 -106 19q-9 2 -52 14l-53 11q-27 6 -35 7q-36 0 -59 -21q-7 -7 -41 -71zM1030 282q111 166 111 435q0 288 -128 457q-129 170 -347 170q-171 0 -285 -95q-102 -85 -152 -234q-45 -133 -45 -298q0 -282 130 -453q129 -171 343 -171q245 0 373 189zM1147 1246
q190 -204 190 -529q0 -322 -189 -527t-486 -205q-295 0 -485 206t-190 526q0 321 188 527t482 206q300 0 490 -204z" />
    <glyph glyph-name="Odieresis" unicode="&#xd6;" horiz-adv-x="1433" 
d="M1030 282q111 166 111 435q0 288 -128 457q-129 170 -347 170q-171 0 -285 -95q-102 -85 -152 -234q-45 -133 -45 -298q0 -282 130 -453q129 -171 343 -171q245 0 373 189zM1147 1246q190 -204 190 -529q0 -322 -189 -527t-486 -205q-295 0 -485 206t-190 526
q0 321 188 527t482 206q300 0 490 -204zM475 1582q-117 0 -117 95q0 96 117 96q116 0 116 -96q0 -95 -116 -95zM837 1582q-117 0 -117 95q0 96 117 96q116 0 116 -96q0 -95 -116 -95z" />
    <glyph glyph-name="multiply" unicode="&#xd7;" horiz-adv-x="1192" 
d="M869 1092q25 26 50 26q26 0 51 -26q26 -25 26 -50t-26 -51l-273 -273l273 -273q26 -25 26 -50t-26 -51q-25 -25 -51 -25q-25 0 -50 25l-273 273l-273 -273q-25 -25 -51 -25q-25 0 -50 25q-25 26 -25 51t25 50l273 273l-273 273q-25 26 -25 51t25 50q25 26 50 26
q26 0 51 -26l273 -273z" />
    <glyph glyph-name="Oslash" unicode="&#xd8;" horiz-adv-x="1433" 
d="M982 1374q91 -48 165 -128q190 -204 190 -529q0 -322 -189 -527t-486 -205q-164 0 -296 64l-92 -198q-12 -26 -35 -26q-10 0 -22 5q-26 12 -26 34q0 10 5 22l96 206q-62 41 -115 99q-190 206 -190 526q0 321 188 527t482 206q135 0 247 -41l85 183q12 26 35 26
q10 0 22 -5q26 -12 26 -34q0 -10 -5 -22zM351 220l504 1085q-84 39 -189 39q-171 0 -285 -95q-102 -85 -152 -234q-45 -133 -45 -298q0 -282 130 -453q18 -24 37 -44zM929 1260l-510 -1098q102 -69 238 -69q245 0 373 189q111 166 111 435q0 288 -128 457q-38 50 -84 86z
" />
    <glyph glyph-name="Ugrave" unicode="&#xd9;" horiz-adv-x="1271" 
d="M1082 1435q60 0 60 -60v-824q0 -247 -129 -401q-138 -165 -429 -165q-301 0 -431 177q-105 144 -112 428l-1 758q0 86 84 86q85 0 85 -86v-783q10 -163 55 -266q51 -115 147 -163q75 -38 187 -38q119 0 197 34q98 43 151 141q74 141 76 309v793q0 60 60 60zM747 1550
q13 -20 13 -32q0 -7 -4 -12q-10 -11 -25 -11q-20 0 -47 22q-6 5 -261 204q-76 54 -76 97q0 24 23 45q15 13 96 13q60 0 281 -326z" />
    <glyph glyph-name="Uacute" unicode="&#xda;" horiz-adv-x="1271" 
d="M1082 1435q60 0 60 -60v-824q0 -247 -129 -401q-138 -165 -429 -165q-301 0 -431 177q-105 144 -112 428l-1 758q0 86 84 86q85 0 85 -86v-783q10 -163 55 -266q51 -115 147 -163q75 -38 187 -38q119 0 197 34q98 43 151 141q74 141 76 309v793q0 60 60 60zM414 1550
q221 326 281 326q82 0 97 -13q23 -21 23 -45q0 -43 -76 -97q-255 -199 -261 -204q-27 -22 -48 -22q-14 0 -25 11q-4 5 -4 12q0 12 13 32z" />
    <glyph glyph-name="Ucircumflex" unicode="&#xdb;" horiz-adv-x="1271" 
d="M1082 1435q60 0 60 -60v-824q0 -247 -129 -401q-138 -165 -429 -165q-301 0 -431 177q-105 144 -112 428l-1 758q0 86 84 86q85 0 85 -86v-783q10 -163 55 -266q51 -115 147 -163q75 -38 187 -38q119 0 197 34q98 43 151 141q74 141 76 309v793q0 60 60 60zM927 1550
q14 -19 14 -32q0 -7 -5 -12q-11 -11 -26 -11q-21 0 -49 22q-5 4 -254 192q-250 -188 -255 -192q-28 -22 -49 -22q-15 0 -26 11q-5 5 -5 12q0 13 14 32q226 321 282 326h77q56 -5 282 -326z" />
    <glyph glyph-name="Udieresis" unicode="&#xdc;" horiz-adv-x="1271" 
d="M1082 1435q60 0 60 -60v-824q0 -247 -129 -401q-138 -165 -429 -165q-301 0 -431 177q-105 144 -112 428l-1 758q0 86 84 86q85 0 85 -86v-783q10 -163 55 -266q51 -115 147 -163q75 -38 187 -38q119 0 197 34q98 43 151 141q74 141 76 309v793q0 60 60 60zM415 1582
q-117 0 -117 95q0 96 117 96q116 0 116 -96q0 -95 -116 -95zM777 1582q-117 0 -117 95q0 96 117 96q116 0 116 -96q0 -95 -116 -95z" />
    <glyph glyph-name="Yacute" unicode="&#xdd;" horiz-adv-x="1112" 
d="M1099 1351q-63 -169 -242 -439q-18 -28 -41 -62q-95 -136 -181 -260l-1 -515q-11 -75 -85 -75q-86 0 -86 87v445q0 27 -51 109q-28 45 -122 182q-99 144 -149 227q-93 152 -102 168q-15 31 -37 75l-4 7q-7 18 -7 37q0 98 96 98q70 0 92 -67l3 -12q36 -127 122 -271
q5 -8 48 -71q53 -77 109 -155q75 -105 120 -158q307 360 408 691q13 43 56 43q59 0 59 -60q0 -9 -3 -19zM552 1550q221 326 281 326q82 0 97 -13q23 -21 23 -45q0 -43 -76 -97q-255 -199 -261 -204q-27 -22 -48 -22q-14 0 -25 11q-4 5 -4 12q0 12 13 32z" />
    <glyph glyph-name="Thorn" unicode="&#xde;" horiz-adv-x="1106" 
d="M698 496q188 76 188 277q0 148 -82 227q-100 98 -329 98l-230 -15v-650q112 0 202 9q154 14 251 54zM909 1096q177 -112 177 -290q0 -321 -321 -423q-130 -41 -314 -56l-206 -9v-213q0 -105 -94 -105q-90 0 -90 105v1243q0 87 90 87t90 -87v-151h239q267 0 429 -101z" />
    <glyph glyph-name="germandbls" unicode="&#xdf;" horiz-adv-x="1080" 
d="M911 640q115 -108 115 -259q0 -273 -251 -357q-71 -24 -137 -24q-152 0 -280 128q-25 25 -25 47q0 14 11 27q14 17 31 17q16 0 35 -14q102 -73 198 -73q54 0 106 23q131 59 131 215v2q-3 316 -348 317q-49 3 -53 56v8q0 47 53 63q106 36 106 214q0 37 -5 81
q-24 220 -218 220q-58 0 -95 -21q-53 -31 -53 -154v-1077q-10 -75 -85 -75q-87 0 -87 86v1100q0 245 321 245q365 0 410 -286q8 -49 8 -91q0 -214 -187 -290q184 -21 299 -128z" />
    <glyph glyph-name="agrave" unicode="&#xe0;" horiz-adv-x="1043" 
d="M512 1140q13 -20 13 -32q0 -7 -4 -12q-10 -11 -25 -11q-20 0 -47 22q-6 5 -261 204q-76 54 -76 97q0 24 23 45q15 13 96 13q60 0 281 -326zM648 179q116 86 116 274l-4 119q-61 5 -115 5q-192 0 -296 -66q-114 -74 -114 -206q0 -82 58 -135q57 -52 149 -52q124 0 206 61z
M814 905q113 -120 113 -385v-416q0 -77 -77 -77l-17 2q-68 10 -69 79v71q-77 -86 -153 -127q-99 -52 -226 -52q-144 0 -241 83q-96 84 -96 208q0 193 152 289q169 108 539 108q-17 107 -94 169q-76 63 -193 63q-45 0 -76 -11q-32 -10 -97 -46q-54 -29 -72 -36t-40 -7
q-25 0 -37 7q-23 13 -23 49q0 69 91 109t246 40q257 0 370 -120z" />
    <glyph glyph-name="aacute" unicode="&#xe1;" horiz-adv-x="1043" 
d="M481 1140q221 326 281 326q82 0 97 -13q23 -21 23 -45q0 -43 -76 -97q-255 -199 -261 -204q-27 -22 -48 -22q-14 0 -25 11q-4 5 -4 12q0 12 13 32zM648 179q116 86 116 274l-4 119q-61 5 -115 5q-192 0 -296 -66q-114 -74 -114 -206q0 -82 58 -135q57 -52 149 -52
q124 0 206 61zM814 905q113 -120 113 -385v-416q0 -77 -77 -77l-17 2q-68 10 -69 79v71q-77 -86 -153 -127q-99 -52 -226 -52q-144 0 -241 83q-96 84 -96 208q0 193 152 289q169 108 539 108q-17 107 -94 169q-76 63 -193 63q-45 0 -76 -11q-32 -10 -97 -46q-54 -29 -72 -36
t-40 -7q-25 0 -37 7q-23 13 -23 49q0 69 91 109t246 40q257 0 370 -120z" />
    <glyph glyph-name="acircumflex" unicode="&#xe2;" horiz-adv-x="1043" 
d="M810 1140q14 -19 14 -32q0 -7 -5 -12q-11 -11 -26 -11q-21 0 -49 22q-5 4 -254 192q-250 -188 -255 -192q-28 -22 -49 -22q-15 0 -26 11q-5 5 -5 12q0 13 14 32q226 321 282 326h77q56 -5 282 -326zM648 179q116 86 116 274l-4 119q-61 5 -115 5q-192 0 -296 -66
q-114 -74 -114 -206q0 -82 58 -135q57 -52 149 -52q124 0 206 61zM814 905q113 -120 113 -385v-416q0 -77 -77 -77l-17 2q-68 10 -69 79v71q-77 -86 -153 -127q-99 -52 -226 -52q-144 0 -241 83q-96 84 -96 208q0 193 152 289q169 108 539 108q-17 107 -94 169
q-76 63 -193 63q-45 0 -76 -11q-32 -10 -97 -46q-54 -29 -72 -36t-40 -7q-25 0 -37 7q-23 13 -23 49q0 69 91 109t246 40q257 0 370 -120z" />
    <glyph glyph-name="atilde" unicode="&#xe3;" horiz-adv-x="1043" 
d="M238 1114q-15 -29 -32 -29q-5 0 -10 3q-17 8 -17 25q0 3 1 7l2 10q29 100 62 144q50 66 137 66h3q32 0 107 -19q8 -2 51 -13l53 -12q28 -6 35 -6q36 0 59 20q7 7 41 72q15 29 32 29q5 0 10 -3q18 -8 18 -26q0 -3 -1 -7l-3 -9q-28 -100 -62 -144q-50 -67 -137 -67h-3
q-32 0 -106 19q-9 2 -52 14l-53 11q-27 6 -35 7q-36 0 -59 -21q-7 -7 -41 -71zM648 179q116 86 116 274l-4 119q-61 5 -115 5q-192 0 -296 -66q-114 -74 -114 -206q0 -82 58 -135q57 -52 149 -52q124 0 206 61zM814 905q113 -120 113 -385v-416q0 -77 -77 -77l-17 2
q-68 10 -69 79v71q-77 -86 -153 -127q-99 -52 -226 -52q-144 0 -241 83q-96 84 -96 208q0 193 152 289q169 108 539 108q-17 107 -94 169q-76 63 -193 63q-45 0 -76 -11q-32 -10 -97 -46q-54 -29 -72 -36t-40 -7q-25 0 -37 7q-23 13 -23 49q0 69 91 109t246 40
q257 0 370 -120z" />
    <glyph glyph-name="adieresis" unicode="&#xe4;" horiz-adv-x="1043" 
d="M307 1172q-117 0 -117 95q0 96 117 96q116 0 116 -96q0 -95 -116 -95zM669 1172q-117 0 -117 95q0 96 117 96q116 0 116 -96q0 -95 -116 -95zM648 179q116 86 116 274l-4 119q-61 5 -115 5q-192 0 -296 -66q-114 -74 -114 -206q0 -82 58 -135q57 -52 149 -52
q124 0 206 61zM814 905q113 -120 113 -385v-416q0 -77 -77 -77l-17 2q-68 10 -69 79v71q-77 -86 -153 -127q-99 -52 -226 -52q-144 0 -241 83q-96 84 -96 208q0 193 152 289q169 108 539 108q-17 107 -94 169q-76 63 -193 63q-45 0 -76 -11q-32 -10 -97 -46q-54 -29 -72 -36
t-40 -7q-25 0 -37 7q-23 13 -23 49q0 69 91 109t246 40q257 0 370 -120z" />
    <glyph glyph-name="aring" unicode="&#xe5;" horiz-adv-x="1043" 
d="M385 1274q0 -45 30.5 -72t67.5 -27t67.5 27t30.5 72q0 43 -31 70t-67 27t-67 -27t-31 -70zM285 1274q0 78 55.5 136t142.5 58q89 0 145 -58.5t56 -135.5q0 -79 -56 -137t-145 -58q-87 0 -142.5 58t-55.5 137zM648 179q116 86 116 274l-4 119q-61 5 -115 5
q-192 0 -296 -66q-114 -74 -114 -206q0 -82 58 -135q57 -52 149 -52q124 0 206 61zM814 905q113 -120 113 -385v-416q0 -77 -77 -77l-17 2q-68 10 -69 79v71q-77 -86 -153 -127q-99 -52 -226 -52q-144 0 -241 83q-96 84 -96 208q0 193 152 289q169 108 539 108
q-17 107 -94 169q-76 63 -193 63q-45 0 -76 -11q-32 -10 -97 -46q-54 -29 -72 -36t-40 -7q-25 0 -37 7q-23 13 -23 49q0 69 91 109t246 40q257 0 370 -120z" />
    <glyph glyph-name="ae" unicode="&#xe6;" horiz-adv-x="1700" 
d="M1031 836q-88 -91 -116 -266q73 -7 115 -10l78 -2q152 0 245 58q94 59 94 156q0 69 -53 113q-53 43 -136 43q-140 0 -227 -92zM734 493l-94 19l-32 6l-20 2q-63 6 -89 6q-122 0 -202 -65q-79 -65 -79 -166q0 -78 58 -126t152 -48q49 0 106 16q56 16 89 38q54 40 83 115
q28 76 28 180v23zM1621 265q8 -13 8 -24q0 -32 -35 -78q-36 -45 -87 -79q-55 -39 -136 -62q-80 -22 -162 -22q-111 0 -206 47q-54 25 -91 56q-37 30 -96 99q-25 -30 -36 -41q-17 -18 -31 -31q-71 -68 -159 -100q-34 -12 -86 -21q-53 -9 -89 -9q-161 0 -264 86
q-103 85 -103 218q0 112 88 205q87 93 210 115q42 7 105 7q71 0 168 -9q26 -3 103 -17q0 145 -74 227q-73 81 -201 83q-69 0 -166 -52q-54 -29 -72 -36t-39 -7q-25 0 -37 7q-22 12 -22 48q0 68 90 107q79 34 210 38l36 1q57 0 120 -14t115 -39q53 -24 92 -64q24 -23 36 -40
q13 -17 36 -59l27 40q44 48 97 89q62 42 136 67q74 24 149 24q158 0 260 -76t102 -194q0 -148 -132 -221q-133 -73 -406 -73h-160q0 -151 91 -242q90 -92 237 -92q78 0 143 26q66 27 130 86l23 21q20 19 44 19l22 -6z" />
    <glyph glyph-name="ccedilla" unicode="&#xe7;" horiz-adv-x="981" 
d="M457 -6q-159 18 -271 135q-133 139 -133 351q0 235 144 395q145 160 359 160q133 0 231 -58q97 -58 97 -137q0 -35 -26 -60t-62 -25q-48 0 -82 42q-43 61 -57 75q-45 49 -115 49q-117 0 -189 -71q-61 -61 -89 -168q-22 -87 -22 -194q0 -161 86 -265q87 -103 224 -103
q59 0 125 24q65 24 97 57q20 21 45 46q39 36 57 36l24 -3q19 -10 19 -40q0 -67 -108 -151q-127 -99 -291 -99h-1v-97q35 7 64 7q75 0 120 -42q44 -41 44 -111q0 -75 -51 -121q-50 -46 -131 -52q-10 -1 -20 -1q-36 0 -76 9q-94 19 -203 71q-27 13 -27 36q0 9 4 19q9 23 28 23
q11 0 24 -7q66 -33 129 -52q52 -15 100 -15q46 0 72 22q25 22 25 62q0 41 -26 65q-27 24 -74 24q-21 0 -29 -1h-5q-29 0 -30 34v131z" />
    <glyph glyph-name="egrave" unicode="&#xe8;" horiz-adv-x="1049" 
d="M512 1140q13 -20 13 -32q0 -7 -4 -12q-10 -11 -25 -11q-20 0 -47 22q-6 5 -261 204q-76 54 -76 97q0 24 23 45q15 13 96 13q60 0 281 -326zM624 562q166 74 166 212q0 75 -54 121t-146 46q-176 0 -279 -162q-83 -130 -83 -284q248 0 396 67zM904 256q21 10 38 10
q31 0 47 -32q3 -7 3 -14q0 -50 -134 -139q-139 -91 -320 -91q-217 0 -352 131q-134 131 -134 344q0 247 162 409q162 161 409 161q155 0 252 -73t97 -192q0 -85 -31 -134q-51 -97 -194 -161q-208 -78 -517 -84q13 -127 118 -201q95 -67 229 -67q76 0 178 44q88 48 149 89z
" />
    <glyph glyph-name="eacute" unicode="&#xe9;" horiz-adv-x="1049" 
d="M504 1140q221 326 281 326q82 0 97 -13q23 -21 23 -45q0 -43 -76 -97q-255 -199 -261 -204q-27 -22 -48 -22q-14 0 -25 11q-4 5 -4 12q0 12 13 32zM624 562q166 74 166 212q0 75 -54 121t-146 46q-176 0 -279 -162q-83 -130 -83 -284q248 0 396 67zM904 256q21 10 38 10
q31 0 47 -32q3 -7 3 -14q0 -50 -134 -139q-139 -91 -320 -91q-217 0 -352 131q-134 131 -134 344q0 247 162 409q162 161 409 161q155 0 252 -73t97 -192q0 -85 -31 -134q-51 -97 -194 -161q-208 -78 -517 -84q13 -127 118 -201q95 -67 229 -67q76 0 178 44q88 48 149 89z
" />
    <glyph glyph-name="ecircumflex" unicode="&#xea;" horiz-adv-x="1049" 
d="M830 1140q14 -19 14 -32q0 -7 -5 -12q-11 -11 -26 -11q-21 0 -49 22q-5 4 -254 192q-250 -188 -255 -192q-28 -22 -49 -22q-15 0 -26 11q-5 5 -5 12q0 13 14 32q226 321 282 326h77q56 -5 282 -326zM624 562q166 74 166 212q0 75 -54 121t-146 46q-176 0 -279 -162
q-83 -130 -83 -284q248 0 396 67zM904 256q21 10 38 10q31 0 47 -32q3 -7 3 -14q0 -50 -134 -139q-139 -91 -320 -91q-217 0 -352 131q-134 131 -134 344q0 247 162 409q162 161 409 161q155 0 252 -73t97 -192q0 -85 -31 -134q-51 -97 -194 -161q-208 -78 -517 -84
q13 -127 118 -201q95 -67 229 -67q76 0 178 44q88 48 149 89z" />
    <glyph glyph-name="edieresis" unicode="&#xeb;" horiz-adv-x="1049" 
d="M337 1172q-117 0 -117 95q0 96 117 96q116 0 116 -96q0 -95 -116 -95zM699 1172q-117 0 -117 95q0 96 117 96q116 0 116 -96q0 -95 -116 -95zM624 562q166 74 166 212q0 75 -54 121t-146 46q-176 0 -279 -162q-83 -130 -83 -284q248 0 396 67zM904 256q21 10 38 10
q31 0 47 -32q3 -7 3 -14q0 -50 -134 -139q-139 -91 -320 -91q-217 0 -352 131q-134 131 -134 344q0 247 162 409q162 161 409 161q155 0 252 -73t97 -192q0 -85 -31 -134q-51 -97 -194 -161q-208 -78 -517 -84q13 -127 118 -201q95 -67 229 -67q76 0 178 44q88 48 149 89z
" />
    <glyph glyph-name="igrave" unicode="&#xec;" horiz-adv-x="673" 
d="M582 84q0 -84 -81 -84t-81 84v858q1 84 81 84q81 0 81 -84v-858zM500 1140q13 -20 13 -32q0 -7 -4 -12q-10 -11 -25 -11q-20 0 -47 22q-6 5 -261 204q-76 54 -76 97q0 24 23 45q15 13 96 13q60 0 281 -326z" />
    <glyph glyph-name="iacute" unicode="&#xed;" horiz-adv-x="653" 
d="M262 84q0 -84 -81 -84t-81 84v858q1 84 81 84q81 0 81 -84v-858zM161 1140q221 326 281 326q82 0 97 -13q23 -21 23 -45q0 -43 -76 -97q-255 -199 -261 -204q-27 -22 -48 -22q-14 0 -25 11q-4 5 -4 12q0 12 13 32z" />
    <glyph glyph-name="icircumflex" unicode="&#xee;" horiz-adv-x="860" 
d="M508 84q0 -84 -81 -84t-81 84v858q1 84 81 84q81 0 81 -84v-858zM755 1140q14 -19 14 -32q0 -7 -5 -12q-11 -11 -26 -11q-21 0 -49 22q-5 4 -254 192q-250 -188 -255 -192q-28 -22 -49 -22q-15 0 -26 11q-5 5 -5 12q0 13 14 32q226 321 282 326h77q56 -5 282 -326z" />
    <glyph glyph-name="idieresis" unicode="&#xef;" horiz-adv-x="786" 
d="M484 84q0 -84 -81 -84t-81 84v858q1 84 81 84q81 0 81 -84v-858zM217 1172q-117 0 -117 95q0 96 117 96q116 0 116 -96q0 -95 -116 -95zM579 1172q-117 0 -117 95q0 96 117 96q116 0 116 -96q0 -95 -116 -95z" />
    <glyph glyph-name="eth" unicode="&#xf0;" horiz-adv-x="1175" 
d="M841 225q83 120 83 282q0 155 -88 275q-102 141 -278 141q-128 0 -232 -105q-113 -116 -113 -288q0 -193 90 -309q99 -131 289 -131q156 0 249 135zM962 143q-151 -154 -365 -154q-259 0 -405 120q-164 133 -164 400q0 223 154 374q154 150 378 150h6q24 -1 137 -26
q-6 19 -51 77q-48 60 -141 154q-67 -34 -140 -70q-75 -36 -122 -50q-9 -3 -17 -3q-25 0 -39 30q-4 9 -4 17q0 19 25 35q35 22 226 119q-28 27 -176 187q-19 20 -19 38q0 20 21 37q20 17 42 17q21 0 44 -15q28 -20 216 -205l258 127q23 12 40 12q24 0 38 -21q10 -15 10 -29
q0 -22 -30 -37l-242 -122q73 -68 141 -130q137 -134 217 -271q113 -193 113 -384q0 -223 -151 -377z" />
    <glyph glyph-name="ntilde" unicode="&#xf1;" horiz-adv-x="1033" 
d="M830 909q88 -115 88 -338l-1 -490q0 -81 -81 -81t-81 81l-1 490q0 177 -60 256q-54 71 -166 71q-98 0 -168 -45q-97 -62 -100 -197v-575q0 -81 -81 -81t-81 81v863q0 81 81 81t81 -81v-67q143 146 312 146q171 0 258 -114zM268 1114q-15 -29 -32 -29q-5 0 -10 3
q-17 8 -17 25q0 3 1 7l2 10q29 100 62 144q50 66 137 66h3q32 0 107 -19q8 -2 51 -13l53 -12q28 -6 35 -6q36 0 59 20q7 7 41 72q15 29 32 29q5 0 10 -3q18 -8 18 -26q0 -3 -1 -7l-3 -9q-28 -100 -62 -144q-50 -67 -137 -67h-3q-32 0 -106 19q-9 2 -52 14l-53 11
q-27 6 -35 7q-36 0 -59 -21q-7 -7 -41 -71z" />
    <glyph glyph-name="ograve" unicode="&#xf2;" horiz-adv-x="1170" 
d="M822 215q96 113 96 297q0 181 -96 296q-95 114 -246 114q-150 0 -245 -115q-96 -114 -96 -295q0 -177 96 -294q95 -117 240 -117q155 0 251 114zM951 888q147 -147 147 -379q0 -226 -147 -373q-147 -146 -375 -146q-231 0 -377 146q-146 147 -146 376q0 230 145 377
q145 146 375 146q232 0 378 -147zM594 1140q13 -20 13 -32q0 -7 -4 -12q-10 -11 -25 -11q-20 0 -47 22q-6 5 -261 204q-76 54 -76 97q0 24 23 45q15 13 96 13q60 0 281 -326z" />
    <glyph glyph-name="oacute" unicode="&#xf3;" horiz-adv-x="1170" 
d="M822 215q96 113 96 297q0 181 -96 296q-95 114 -246 114q-150 0 -245 -115q-96 -114 -96 -295q0 -177 96 -294q95 -117 240 -117q155 0 251 114zM951 888q147 -147 147 -379q0 -226 -147 -373q-147 -146 -375 -146q-231 0 -377 146q-146 147 -146 376q0 230 145 377
q145 146 375 146q232 0 378 -147zM567 1140q221 326 281 326q82 0 97 -13q23 -21 23 -45q0 -43 -76 -97q-255 -199 -261 -204q-27 -22 -48 -22q-14 0 -25 11q-4 5 -4 12q0 12 13 32z" />
    <glyph glyph-name="ocircumflex" unicode="&#xf4;" horiz-adv-x="1170" 
d="M822 215q96 113 96 297q0 181 -96 296q-95 114 -246 114q-150 0 -245 -115q-96 -114 -96 -295q0 -177 96 -294q95 -117 240 -117q155 0 251 114zM951 888q147 -147 147 -379q0 -226 -147 -373q-147 -146 -375 -146q-231 0 -377 146q-146 147 -146 376q0 230 145 377
q145 146 375 146q232 0 378 -147zM882 1140q14 -19 14 -32q0 -7 -5 -12q-11 -11 -26 -11q-21 0 -49 22q-5 4 -254 192q-250 -188 -255 -192q-28 -22 -49 -22q-15 0 -26 11q-5 5 -5 12q0 13 14 32q226 321 282 326h77q56 -5 282 -326z" />
    <glyph glyph-name="otilde" unicode="&#xf5;" horiz-adv-x="1170" 
d="M822 215q96 113 96 297q0 181 -96 296q-95 114 -246 114q-150 0 -245 -115q-96 -114 -96 -295q0 -177 96 -294q95 -117 240 -117q155 0 251 114zM951 888q147 -147 147 -379q0 -226 -147 -373q-147 -146 -375 -146q-231 0 -377 146q-146 147 -146 376q0 230 145 377
q145 146 375 146q232 0 378 -147zM308 1114q-15 -29 -32 -29q-5 0 -10 3q-17 8 -17 25q0 3 1 7l2 10q29 100 62 144q50 66 137 66h3q32 0 107 -19q8 -2 51 -13l53 -12q28 -6 35 -6q36 0 59 20q7 7 41 72q15 29 32 29q5 0 10 -3q18 -8 18 -26q0 -3 -1 -7l-3 -9
q-28 -100 -62 -144q-50 -67 -137 -67h-3q-32 0 -106 19q-9 2 -52 14l-53 11q-27 6 -35 7q-36 0 -59 -21q-7 -7 -41 -71z" />
    <glyph glyph-name="odieresis" unicode="&#xf6;" horiz-adv-x="1170" 
d="M822 215q96 113 96 297q0 181 -96 296q-95 114 -246 114q-150 0 -245 -115q-96 -114 -96 -295q0 -177 96 -294q95 -117 240 -117q155 0 251 114zM951 888q147 -147 147 -379q0 -226 -147 -373q-147 -146 -375 -146q-231 0 -377 146q-146 147 -146 376q0 230 145 377
q145 146 375 146q232 0 378 -147zM377 1172q-117 0 -117 95q0 96 117 96q116 0 116 -96q0 -95 -116 -95zM739 1172q-117 0 -117 95q0 96 117 96q116 0 116 -96q0 -95 -116 -95z" />
    <glyph glyph-name="divide" unicode="&#xf7;" horiz-adv-x="1108" 
d="M556 953q-117 0 -117 95q0 96 117 96q116 0 116 -96q0 -95 -116 -95zM556 263q-117 0 -117 95q0 96 117 96q116 0 116 -96q0 -95 -116 -95zM961 643h-809q-68 0 -68 76t68 76h809q68 0 68 -76t-68 -76z" />
    <glyph glyph-name="oslash" unicode="&#xf8;" horiz-adv-x="1170" 
d="M828 978q68 -34 123 -90q147 -147 147 -379q0 -226 -147 -373q-147 -146 -375 -146q-105 0 -193 30l-79 -169q-12 -26 -35 -26q-10 0 -22 5q-26 12 -26 34q0 10 5 22l79 169q-58 33 -106 81q-146 147 -146 376q0 230 145 377q145 146 375 146q95 0 176 -25l90 195
q12 26 35 26q10 0 22 -5q26 -12 26 -34q0 -10 -5 -22zM364 182l333 718q-55 22 -121 22q-150 0 -245 -115q-96 -114 -96 -295q0 -177 96 -294q16 -19 33 -36zM772 857l-337 -725q61 -31 136 -31q155 0 251 114q96 113 96 297q0 181 -96 296q-23 28 -50 49z" />
    <glyph glyph-name="ugrave" unicode="&#xf9;" horiz-adv-x="1036" 
d="M178 115q-88 115 -88 340l1 488q0 82 81 82t81 -82v-488q1 -179 61 -258q55 -71 166 -71q98 0 168 45q97 62 100 198v574q0 82 81 82t81 -82v-833q0 -81 -81 -81t-81 81v36q-143 -146 -312 -146q-171 0 -258 115zM512 1140q13 -20 13 -32q0 -7 -4 -12q-10 -11 -25 -11
q-20 0 -47 22q-6 5 -261 204q-76 54 -76 97q0 24 23 45q15 13 96 13q60 0 281 -326z" />
    <glyph glyph-name="uacute" unicode="&#xfa;" horiz-adv-x="1036" 
d="M178 115q-88 115 -88 340l1 488q0 82 81 82t81 -82v-488q1 -179 61 -258q55 -71 166 -71q98 0 168 45q97 62 100 198v574q0 82 81 82t81 -82v-833q0 -81 -81 -81t-81 81v36q-143 -146 -312 -146q-171 0 -258 115zM481 1140q221 326 281 326q82 0 97 -13q23 -21 23 -45
q0 -43 -76 -97q-255 -199 -261 -204q-27 -22 -48 -22q-14 0 -25 11q-4 5 -4 12q0 12 13 32z" />
    <glyph glyph-name="ucircumflex" unicode="&#xfb;" horiz-adv-x="1036" 
d="M178 115q-88 115 -88 340l1 488q0 82 81 82t81 -82v-488q1 -179 61 -258q55 -71 166 -71q98 0 168 45q97 62 100 198v574q0 82 81 82t81 -82v-833q0 -81 -81 -81t-81 81v36q-143 -146 -312 -146q-171 0 -258 115zM820 1140q14 -19 14 -32q0 -7 -5 -12q-11 -11 -26 -11
q-21 0 -49 22q-5 4 -254 192q-250 -188 -255 -192q-28 -22 -49 -22q-15 0 -26 11q-5 5 -5 12q0 13 14 32q226 321 282 326h77q56 -5 282 -326z" />
    <glyph glyph-name="udieresis" unicode="&#xfc;" horiz-adv-x="1036" 
d="M178 115q-88 115 -88 340l1 488q0 82 81 82t81 -82v-488q1 -179 61 -258q55 -71 166 -71q98 0 168 45q97 62 100 198v574q0 82 81 82t81 -82v-833q0 -81 -81 -81t-81 81v36q-143 -146 -312 -146q-171 0 -258 115zM307 1172q-117 0 -117 95q0 96 117 96q116 0 116 -96
q0 -95 -116 -95zM669 1172q-117 0 -117 95q0 96 117 96q116 0 116 -96q0 -95 -116 -95z" />
    <glyph glyph-name="yacute" unicode="&#xfd;" horiz-adv-x="1062" 
d="M969 969q-7 -514 -246 -965q-91 -192 -250 -323q-148 -122 -311 -122q-50 0 -84 28q-35 27 -35 67q0 32 22 49q21 18 61 18q9 0 52 -4l59 -4q108 0 199 85q99 93 158 231q-38 -15 -66 -23q-29 -7 -60 -7q-153 0 -244 173q-117 220 -148 528l-5 251q4 78 81 78
q81 0 81 -81q0 -297 39 -461q33 -142 103 -253q76 -122 166 -122q100 0 174 153q61 126 98 356q11 75 30 351q2 61 63 61q56 0 63 -57v-7zM481 1140q221 326 281 326q82 0 97 -13q23 -21 23 -45q0 -43 -76 -97q-255 -199 -261 -204q-27 -22 -48 -22q-14 0 -25 11q-4 5 -4 12
q0 12 13 32z" />
    <glyph glyph-name="thorn" unicode="&#xfe;" horiz-adv-x="1136" 
d="M777 225q90 124 90 314q0 157 -90 261q-89 103 -224 103q-108 0 -188 -41q-81 -41 -92 -102v-544q113 -115 278 -115q137 0 226 124zM898 902q145 -136 145 -363q0 -233 -138 -388q-137 -154 -346 -154h-21q-47 0 -95 12q-77 20 -174 74l-1 -429q-1 -82 -82 -82
q-82 0 -82 82v1699q0 82 82 82q81 0 82 -82v-455q81 64 152 94q80 33 169 33q179 0 309 -123z" />
    <glyph glyph-name="ydieresis" unicode="&#xff;" horiz-adv-x="1062" 
d="M969 969q-7 -514 -246 -965q-91 -192 -250 -323q-148 -122 -311 -122q-50 0 -84 28q-35 27 -35 67q0 32 22 49q21 18 61 18q9 0 52 -4l59 -4q108 0 199 85q99 93 158 231q-38 -15 -66 -23q-29 -7 -60 -7q-153 0 -244 173q-117 220 -148 528l-5 251q4 78 81 78
q81 0 81 -81q0 -297 39 -461q33 -142 103 -253q76 -122 166 -122q100 0 174 153q61 126 98 356q11 75 30 351q2 61 63 61q56 0 63 -57v-7zM357 1172q-117 0 -117 95q0 96 117 96q116 0 116 -96q0 -95 -116 -95zM719 1172q-117 0 -117 95q0 96 117 96q116 0 116 -96
q0 -95 -116 -95z" />
    <glyph glyph-name="circumflex" unicode="&#x2c6;" horiz-adv-x="948" 
d="M774 1108q14 -19 14 -32q0 -7 -5 -12q-11 -11 -26 -11q-21 0 -49 22q-5 4 -254 192q-250 -188 -255 -192q-28 -22 -49 -22q-15 0 -26 11q-5 5 -5 12q0 13 14 32q226 321 282 326h77q56 -5 282 -326z" />
    <glyph glyph-name="caron" unicode="&#x2c7;" horiz-adv-x="1127" 
d="M602 1053h-77q-56 4 -282 325q-14 20 -14 33q0 7 5 12q11 11 26 11q21 0 49 -23q5 -4 255 -191q249 187 254 191q28 23 49 23q15 0 26 -11q5 -5 5 -12q0 -13 -14 -33q-226 -321 -282 -325z" />
    <glyph glyph-name="uni02C9" unicode="&#x2c9;" horiz-adv-x="1068" 
d="M760 1180h-437q-71 0 -71 76t71 76h437q71 0 71 -76t-71 -76z" />
    <glyph glyph-name="breve" unicode="&#x2d8;" horiz-adv-x="1071" 
d="M224 1285q-12 23 -12 37q0 7 4 12q9 13 24 13t37 -14q116 -73 255 -73q138 0 255 73q21 14 37 14q15 0 24 -13q4 -5 4 -12q0 -14 -12 -37q-95 -189 -308 -189t-308 189z" />
    <glyph glyph-name="dotaccent" unicode="&#x2d9;" horiz-adv-x="1042" 
d="M535 1161q-117 0 -117 95q0 96 117 96q116 0 116 -96q0 -95 -116 -95z" />
    <glyph glyph-name="ring" unicode="&#x2da;" horiz-adv-x="1068" 
d="M435 1274q0 -45 30.5 -72t67.5 -27t67.5 27t30.5 72q0 43 -31 70t-67 27t-67 -27t-31 -70zM335 1274q0 78 55.5 136t142.5 58q89 0 145 -58.5t56 -135.5q0 -79 -56 -137t-145 -58q-87 0 -142.5 58t-55.5 137z" />
    <glyph glyph-name="ogonek" unicode="&#x2db;" horiz-adv-x="1068" 
d="M714 -265q13 23 29 23q9 0 19 -6t10 -19q0 -23 -28 -64q-45 -67 -122 -86q-24 -6 -48 -6q-44 0 -90 19q-94 37 -94 124q0 13 2 27q11 73 95 159q50 51 105 94h99l-134 -150q-29 -48 -29 -85q0 -23 11 -41q25 -43 75 -43q7 0 15 1q59 6 85 53z" />
    <glyph glyph-name="tilde" unicode="&#x2dc;" horiz-adv-x="1072" 
d="M296 1125q-15 -29 -32 -29q-5 0 -10 3q-17 8 -17 25q0 3 1 7l2 10q29 100 62 144q50 66 137 66h3q32 0 107 -19q8 -2 51 -13l53 -12q28 -6 35 -6q36 0 59 20q7 7 41 72q15 29 32 29q5 0 10 -3q18 -8 18 -26q0 -3 -1 -7l-3 -9q-28 -100 -62 -144q-50 -67 -137 -67h-3
q-32 0 -106 19q-9 2 -52 14l-53 11q-27 6 -35 7q-36 0 -59 -21q-7 -7 -41 -71z" />
    <glyph glyph-name="hungarumlaut" unicode="&#x2dd;" horiz-adv-x="1188" 
d="M545 1110q221 326 281 326q82 0 97 -13q23 -21 23 -45q0 -43 -76 -97q-255 -199 -261 -204q-27 -22 -48 -22q-14 0 -25 11q-4 5 -4 12q0 12 13 32zM255 1110q221 326 281 326q82 0 97 -13q23 -21 23 -45q0 -43 -76 -97q-255 -199 -261 -204q-27 -22 -48 -22q-14 0 -25 11
q-4 5 -4 12q0 12 13 32z" />
    <glyph glyph-name="endash" unicode="&#x2013;" horiz-adv-x="1106" 
d="M979 399h-852q-71 0 -71 76t71 76h852q71 0 71 -76t-71 -76z" />
    <glyph glyph-name="emdash" unicode="&#x2014;" horiz-adv-x="1992" 
d="M1921 399h-1850q-71 0 -71 76t71 76h1850q71 0 71 -76t-71 -76z" />
    <glyph glyph-name="quoteleft" unicode="&#x2018;" horiz-adv-x="592" 
d="M243 1108q-13 39 -13 83q0 159 150 318q16 18 29 27q13 8 28 8q19 0 19 -15q0 -11 -15 -35q-46 -65 -93 -131q-36 -62 -36 -102q0 -18 13 -31h44q128 0 128 -105t-128 -105q-73 0 -111 53q-7 12 -15 35z" />
    <glyph glyph-name="quoteright" unicode="&#x2019;" horiz-adv-x="592" 
d="M349 1456q13 -38 13 -83q0 -159 -150 -318q-16 -18 -29 -26q-13 -9 -28 -9q-19 0 -19 15q0 11 15 35q46 66 93 131q36 62 36 102q0 18 -13 31l-44 1q-128 0 -128 104q0 105 128 105q74 0 111 -52q7 -12 15 -36z" />
    <glyph glyph-name="quotesinglbase" unicode="&#x201a;" horiz-adv-x="592" 
d="M473 117q13 -38 13 -83q0 -159 -150 -318q-16 -18 -29 -26q-13 -9 -28 -9q-19 0 -19 15q0 11 15 35q46 66 93 131q36 62 36 102q0 18 -13 31l-44 1q-128 0 -128 104q0 105 128 105q74 0 111 -52q7 -12 15 -36z" />
    <glyph glyph-name="quotedblleft" unicode="&#x201c;" horiz-adv-x="934" 
d="M585 1108q-13 39 -13 83q0 159 150 318q16 18 29 27q13 8 28 8q19 0 19 -15q0 -11 -15 -35q-46 -65 -93 -131q-36 -62 -36 -102q0 -18 13 -31h44q128 0 128 -105t-128 -105q-73 0 -111 53q-7 12 -15 35zM243 1108q-13 39 -13 83q0 159 150 318q16 18 29 27q13 8 28 8
q19 0 19 -15q0 -11 -15 -35q-46 -65 -93 -131q-36 -62 -36 -102q0 -18 13 -31h44q128 0 128 -105t-128 -105q-73 0 -111 53q-7 12 -15 35z" />
    <glyph glyph-name="quotedblright" unicode="&#x201d;" horiz-adv-x="934" 
d="M349 1456q13 -38 13 -83q0 -159 -150 -318q-16 -18 -29 -26q-13 -9 -28 -9q-19 0 -19 15q0 11 15 35q46 66 93 131q36 62 36 102q0 18 -13 31l-44 1q-128 0 -128 104q0 105 128 105q74 0 111 -52q7 -12 15 -36zM691 1456q13 -38 13 -83q0 -159 -150 -318q-16 -18 -29 -26
q-13 -9 -28 -9q-19 0 -19 15q0 11 15 35q46 66 93 131q36 62 36 102q0 18 -13 31l-44 1q-128 0 -128 104q0 105 128 105q74 0 111 -52q7 -12 15 -36z" />
    <glyph glyph-name="quotedblbase" unicode="&#x201e;" horiz-adv-x="934" 
d="M473 117q13 -38 13 -83q0 -159 -150 -318q-16 -18 -29 -26q-13 -9 -28 -9q-19 0 -19 15q0 11 15 35q46 66 93 131q36 62 36 102q0 18 -13 31l-44 1q-128 0 -128 104q0 105 128 105q74 0 111 -52q7 -12 15 -36zM815 117q13 -38 13 -83q0 -159 -150 -318q-16 -18 -29 -26
q-13 -9 -28 -9q-19 0 -19 15q0 11 15 35q46 66 93 131q36 62 36 102q0 18 -13 31l-44 1q-128 0 -128 104q0 105 128 105q74 0 111 -52q7 -12 15 -36z" />
    <glyph glyph-name="dagger" unicode="&#x2020;" horiz-adv-x="1124" 
d="M941 1071q105 0 105 -104t-105 -104q-16 0 -147 40q-132 41 -187 41q-8 -16 -24 -24q0 -15 74 -294q4 -14 4 -32t-4 -40q-66 -350 -66 -745v-56q-9 -21 -32 -21t-32 21v56q0 395 -66 745q-4 22 -4 40t4 32q74 279 74 294q-16 8 -24 24q-55 0 -187 -41q-131 -40 -147 -40
q-105 0 -105 104t105 104q16 0 148 -40q133 -41 186 -41q8 16 24 24q0 54 -40 184q-41 131 -41 146q0 104 105 104t105 -104q0 -15 -41 -146q-40 -130 -40 -184q16 -8 24 -24q53 0 186 41q132 40 148 40z" />
    <glyph glyph-name="daggerdbl" unicode="&#x2021;" horiz-adv-x="1124" 
d="M941 317q105 0 105 -104t-105 -104q-16 0 -147 40q-132 41 -187 41q-8 -16 -24 -24q0 -53 40 -184q41 -130 41 -146q0 -104 -105 -104t-105 104q0 16 41 146q40 131 40 184q-16 8 -24 24q-55 0 -187 -41q-131 -40 -147 -40q-105 0 -105 104t105 104q16 0 148 -40
q133 -41 186 -41q8 16 24 24q0 17 -74 294q-5 18 -5 36t5 36q74 279 74 294q-16 8 -24 24q-55 0 -187 -41q-131 -40 -147 -40q-105 0 -105 104t105 104q16 0 148 -40q133 -41 186 -41q8 16 24 24q0 54 -40 184q-41 131 -41 146q0 104 105 104t105 -104q0 -15 -41 -146
q-40 -130 -40 -184q16 -8 24 -24q53 0 186 41q132 40 148 40q105 0 105 -104t-105 -104q-16 0 -147 40q-132 41 -187 41q-8 -16 -24 -24q0 -15 74 -294q6 -18 6 -36t-6 -36q-74 -277 -74 -294q16 -8 24 -24q53 0 186 41q132 40 148 40z" />
    <glyph glyph-name="bullet" unicode="&#x2022;" horiz-adv-x="774" 
d="M220 718q0 64 47 115t121 51q73 0 119.5 -51.5t46.5 -114.5q0 -64 -47 -116t-120 -52q-74 0 -120.5 52t-46.5 116z" />
    <glyph glyph-name="ellipsis" unicode="&#x2026;" horiz-adv-x="1995" 
d="M374 0q-117 0 -117 95q0 96 117 96q116 0 116 -96q0 -95 -116 -95zM1056 0q-117 0 -117 95q0 96 117 96q116 0 116 -96q0 -95 -116 -95zM1740 0q-117 0 -117 95q0 96 117 96q116 0 116 -96q0 -95 -116 -95z" />
    <glyph glyph-name="guilsinglleft" unicode="&#x2039;" horiz-adv-x="679" 
d="M480 164l-270 270l-1 2q-18 22 -18 42q0 19 16 37l5 5l268 268q17 17 41 17q23 0 40 -17q17 -16 17 -40t-17 -41l-231 -231l231 -231q17 -17 17 -41q0 -23 -17 -40q-16 -17 -40 -17t-41 17z" />
    <glyph glyph-name="guilsinglright" unicode="&#x203a;" horiz-adv-x="679" 
d="M158 147q-24 0 -40 17q-17 17 -17 40q0 24 17 41l231 231l-231 231q-17 17 -17 41t17 40q17 17 40 17q24 0 41 -17l268 -268l5 -5q16 -18 16 -37q0 -20 -18 -42l-1 -2l-270 -270q-17 -17 -41 -17z" />
    <glyph glyph-name="fraction" unicode="&#x2044;" horiz-adv-x="523" 
d="M-154 -205q-26 12 -26 34q0 10 5 22l793 1706q12 26 35 26q10 0 22 -5q26 -12 26 -34q0 -10 -5 -22l-793 -1706q-12 -26 -35 -26q-10 0 -22 5z" />
    <glyph glyph-name="fraction" unicode="&#x2215;" horiz-adv-x="523" 
d="M-154 -205q-26 12 -26 34q0 10 5 22l793 1706q12 26 35 26q10 0 22 -5q26 -12 26 -34q0 -10 -5 -22l-793 -1706q-12 -26 -35 -26q-10 0 -22 5z" />
    <glyph glyph-name="franc" unicode="&#x20a3;" horiz-adv-x="1144" 
d="M1020 1435q94 0 94 -96q0 -95 -94 -95q-20 0 -37 8q-81 42 -135 57q-74 21 -241 21q-112 0 -178 -10q-8 -3 -13 -7q-37 -28 -41 -116v-397h540q58 0 58 -59t-58 -59h-540v-155h114q69 0 69 -69q0 -70 -69 -70h-114v-313h-1q-11 -75 -85 -75q-86 0 -86 87v301h-104
q-69 0 -69 70q0 69 69 69h104v821q0 87 86 87h731z" />
    <glyph glyph-name="lira" unicode="&#x20a4;" horiz-adv-x="1159" 
d="M991 190q96 0 96 -95t-96 -95h-706q-87 0 -87 86v197h-57q-69 0 -69 69t69 69h57v117h-57q-69 0 -69 69q0 68 69 68h57v383q0 392 337 392q62 0 105 -31t43 -90q0 -34 -23 -55q-24 -22 -65 -22q-31 0 -47 15q-15 14 -26 52q-5 22 -10 31q-8 16 -14 19q-13 5 -24 5
q-58 0 -85 -126q-15 -72 -16 -172v-401h129q69 0 69 -68q0 -69 -69 -69h-129v-117h129q69 0 69 -69t-69 -69h-129v-25q0 -102 33 -124q45 -30 253 -30q82 0 157 21q55 14 137 57q18 8 38 8z" />
    <glyph glyph-name="Euro" unicode="&#x20ac;" horiz-adv-x="1480" 
d="M1374 344q16 -18 16 -37q0 -61 -72 -136q-78 -80 -199 -131q-139 -60 -292 -60q-316 0 -501 209q-113 127 -153 305h-100q-68 0 -68 69q0 68 68 68h81q-3 37 -3 68q0 9 2 49h-80q-68 0 -68 68t68 68h97q43 207 183 355q202 213 516 213q123 0 265 -41q120 -35 158 -67
l-1 -1q39 -28 39 -75q0 -94 -93 -94q-39 0 -66 28q-69 66 -116 92q-100 57 -219 57q-208 0 -347 -181q-94 -121 -124 -286h724q68 0 68 -68t-68 -68h-739l-1 -30q0 -40 5 -87h621q68 0 68 -68q0 -69 -68 -69h-598q35 -130 112 -223q141 -169 369 -169q108 0 208 40
q100 39 160 107q32 48 50 70q34 43 66 43q16 0 32 -18z" />
    <glyph glyph-name="uni2116" unicode="&#x2116;" horiz-adv-x="1999" 
d="M1349 735q0 60 60 60h380q60 0 60 -60q0 -61 -60 -61h-380q-60 0 -60 61zM1511 1027q32 -51 87 -51q62 0 94 56q28 49 28 128q0 85 -32 135q-33 50 -88 50q-43 0 -72 -28q-26 -25 -39 -69q-11 -39 -11 -88q0 -83 33 -133zM1779 1358q70 -76 70 -198q0 -121 -70 -197
q-70 -77 -180 -77q-109 0 -180 77q-70 77 -70 197q0 121 69 198q70 77 179 77q111 0 182 -77zM1253 76q-1 -8 -6 -17q-22 -58 -82 -58q-46 0 -73 38l-821 1129l-1 -1013v-103q-8 -52 -60 -52q-60 0 -60 61v1284q0 90 89 90q34 0 60 -24l7 -6q9 -10 11 -13l816 -1124v1106
q0 61 60 61q61 0 61 -61z" />
    <glyph glyph-name="trademark" unicode="&#x2122;" horiz-adv-x="1589" 
d="M679 1440q52 0 52 -52q0 -53 -52 -53q-11 0 -21 5q-44 23 -74 31q-29 8 -84 11q-23 -3 -29 -10q-8 -12 -8 -61l-1 -614q-6 -41 -47 -41q-47 0 -47 48v632q-1 18 -3 24q-5 17 -37 21q-53 -2 -81 -10q-30 -8 -75 -31q-9 -5 -20 -5q-52 0 -52 53q0 52 52 52h527zM1442 1440
q47 0 47 -47l-1 -689q-5 -40 -46 -40q-46 0 -46 46v535q-139 -302 -212 -461q-13 -25 -37 -25q-7 0 -14 2q-19 5 -28 23l-239 466v-558q-4 -28 -33 -28q-33 0 -33 33l1 700q0 4 1 6q10 38 42 38q8 0 17 -2q21 -6 31 -25l266 -536l241 533q12 29 43 29z" />
    <glyph glyph-name="minus" unicode="&#x2212;" horiz-adv-x="1108" 
d="M961 643h-814q-68 0 -68 76t68 76h814q68 0 68 -76t-68 -76z" />
    <glyph glyph-name="infinity" unicode="&#x221e;" horiz-adv-x="1159" 
d="M289 908q-72 0 -119 -48q-46 -48 -46 -121q0 -71 47 -118q46 -47 116 -47q61 0 108 31t97 103q-46 120 -101 166q-41 34 -102 34zM845 550q84 0 140 55t56 139t-52 137t-136 53q-72 0 -122 -27q-65 -35 -131 -129q64 -130 124 -182q52 -46 121 -46zM276 495
q-104 0 -165 76q-53 67 -53 157q0 115 73 187t190 72q77 0 139 -38q63 -37 111 -115q51 71 72 95q40 44 84 65q51 24 121 24q112 0 182 -74q71 -75 71 -194q0 -125 -84 -207q-85 -83 -211 -83q-97 0 -158 41q-62 42 -126 151q-51 -77 -105 -114q-62 -43 -141 -43z" />
    <glyph glyph-name="approxequal" unicode="&#x2248;" horiz-adv-x="1356" 
d="M112 831q0 20 13 37q83 104 131 145q74 62 179 62q55 0 119 -17q65 -19 156 -56q94 -37 139 -51q48 -17 94 -17q73 0 119 47q23 25 73 87q19 26 49 26q60 0 60 -58q0 -20 -13 -36q-54 -65 -69 -84q-39 -44 -94 -76q-54 -31 -125 -31q-74 0 -203 50l-110 41l-65 23
q-35 12 -65 19q-32 8 -61 8q-85 0 -131 -48l-90 -109q-18 -21 -45 -21q-61 0 -61 59zM112 481q0 20 13 37q83 104 131 145q74 62 179 62q55 0 119 -17q65 -19 156 -56q94 -37 139 -51q48 -17 94 -17q73 0 119 47q23 25 73 87q19 26 49 26q60 0 60 -58q0 -20 -13 -36
q-54 -65 -69 -84q-39 -44 -94 -76q-54 -31 -125 -31q-74 0 -203 50l-110 41l-65 23q-35 12 -65 19q-32 8 -61 8q-85 0 -131 -48l-90 -109q-18 -21 -45 -21q-61 0 -61 59z" />
    <glyph glyph-name="lessequal" unicode="&#x2264;" horiz-adv-x="1190" 
d="M1049 422q44 -18 44 -54q0 -15 -7 -32q-18 -44 -54 -44q-14 0 -32 7l-859 346q-34 13 -41 50v24q5 35 41 49l859 346q18 7 32 7q36 0 54 -44q7 -17 7 -32q0 -36 -44 -54l-707 -284zM103 444q17 42 50 42q13 0 28 -6l871 -354q38 -15 38 -49q0 -14 -7 -31q-17 -41 -50 -41
q-13 0 -28 6l-871 353q-38 15 -38 49q0 14 7 31z" />
    <glyph glyph-name="greaterequal" unicode="&#x2265;" horiz-adv-x="1191" 
d="M849 707l-707 284q-44 18 -44 54q0 14 7 32q18 44 54 44q14 0 32 -7l859 -346q36 -14 41 -49v-24q-8 -37 -41 -50l-859 -346q-18 -7 -32 -7q-36 0 -54 44q-7 18 -7 32q0 36 44 54zM1088 444q7 -17 7 -31q0 -34 -38 -49l-871 -353q-15 -6 -28 -6q-33 0 -50 41q-7 17 -7 31
q0 34 38 49l871 354q15 6 28 6q33 0 50 -42z" />
    <glyph glyph-name="uni0410" unicode="&#x410;" 
d="M837 613q-125 335 -258 616q-79 -151 -166 -367q-50 -125 -95 -249h519zM1199 131q7 -18 7 -36q0 -95 -95 -95q-67 0 -89 64q-52 179 -145 437h-598q-97 -284 -128 -441q-12 -60 -73 -60q-76 0 -76 76l3 21q55 184 60 201q46 133 113 306q82 219 160 395q37 85 80 181
q58 127 98 194q54 91 83 91q52 0 117 -132q280 -571 483 -1202z" />
    <glyph glyph-name="uni0411" unicode="&#x411;" horiz-adv-x="1159" 
d="M822 197q82 79 82 227q0 201 -189 278q-97 39 -251 54q-91 8 -204 8v-479q1 -125 64 -162q41 -24 168 -24q229 0 330 98zM783 814q322 -102 322 -423q0 -178 -178 -290q-162 -101 -430 -101h-327q-90 0 -90 87v1261q0 87 90 87h819q99 0 99 -96t-99 -96l-39 8
q-85 43 -142 58q-77 20 -254 20q-214 0 -260 -30q-29 -19 -33 -101l-1 -321l207 -7q185 -15 316 -56z" />
    <glyph glyph-name="uni0412" unicode="&#x412;" horiz-adv-x="1159" 
d="M920 383q0 151 -124 247q-103 81 -361 81h-189v-435q0 -121 51 -148q38 -21 208 -21q199 0 307 72t108 204zM246 828h289q120 0 205 72q94 76 94 210q0 115 -81 168q-81 52 -259 52q-166 0 -201 -21q-47 -28 -47 -154v-327zM935 79q-134 -79 -368 -79h-404q-83 0 -83 87
v1261q0 87 83 87h429q181 0 299 -71q125 -75 129 -232v-12q0 -106 -68 -197q-72 -97 -203 -148q168 -47 259 -145q97 -103 97 -239q0 -213 -170 -312z" />
    <glyph glyph-name="uni0413" unicode="&#x413;" horiz-adv-x="1060" 
d="M895 1253q-81 42 -136 57q-74 20 -242 20q-206 0 -250 -30q-33 -22 -33 -124l-1 -1090q0 -86 -86 -86t-86 86v1262q0 87 86 87h785q95 0 95 -95t-95 -95q-19 0 -37 8z" />
    <glyph glyph-name="uni0414" unicode="&#x414;" horiz-adv-x="1379" 
d="M506 857q-172 -437 -247 -750h836q-182 599 -424 1120q-78 -149 -165 -370zM1367 63q27 -52 27 -140q0 -21 -16 -38q-16 -15 -37 -16q-33 7 -69 42q-48 46 -80 66q-35 23 -114 24h-786q-80 -1 -115 -24q-31 -20 -80 -66q-36 -35 -69 -42q-21 1 -37 16q-16 17 -16 38
q10 101 23 141q7 30 85 43h24q48 164 54 181q45 134 111 309q82 220 159 398q37 84 80 182q57 129 97 196q54 92 82 92q52 0 116 -133q279 -575 480 -1212q2 -4 9 -13q60 -19 72 -44z" />
    <glyph glyph-name="uni0415" unicode="&#x415;" horiz-adv-x="1103" 
d="M981 186q95 0 95 -93t-95 -93h-831q-89 0 -89 87l-1 1261q0 87 89 87h762q98 0 98 -96t-98 -96q-20 0 -39 8q-84 43 -141 58q-76 20 -251 20q-117 0 -185 -9q-8 -4 -14 -8q-37 -26 -42 -106v-366h589q60 0 60 -59t-60 -59h-589l1 -460q3 -88 28 -115q28 -33 130 -33h217
q219 0 325 63q20 9 41 9z" />
    <glyph glyph-name="uni0416" unicode="&#x416;" horiz-adv-x="1912" 
d="M1861 90q0 -90 -90 -90q-64 0 -85 61l-4 12q-93 326 -421 665q-54 -52 -132 -123q-48 -44 -103 -93l-1 -447q-11 -75 -87 -75q-75 0 -86 75l-1 447q-55 49 -103 93q-77 70 -132 123q-328 -339 -421 -665l-4 -12q-21 -61 -85 -61q-90 0 -90 90l3 24q68 215 232 443
q122 170 250 302q-156 158 -391 452q-23 21 -23 52q0 72 72 72q32 0 55 -26q4 -5 6 -9q345 -475 631 -727v675q0 87 88 87q87 0 87 -87v-675q286 251 631 727l6 9l1 1q22 25 54 25q72 0 72 -72q0 -31 -23 -52q-235 -294 -391 -452q128 -132 250 -302q164 -228 232 -443z" />
    <glyph glyph-name="uni0417" unicode="&#x417;" horiz-adv-x="1282" 
d="M877 793q326 -81 326 -381q0 -120 -78 -226q-87 -117 -199 -168q-105 -48 -328 -48q-185 0 -313 57q-204 91 -273 237l-6 14l-2 5l1 -1q-4 14 -4 25q0 91 91 91q62 0 84 -58q76 -140 189 -192q138 -64 288 -64q158 0 257 84q95 81 97 226v8q0 109 -56 179q-31 38 -80 67
q-108 64 -267 64h-199q-55 0 -84 20q-26 18 -26 41t24 41q27 19 80 19h205q111 0 186 42q33 14 59 34q90 69 90 184q0 242 -297 255q-17 1 -34 1q-170 0 -272 -75l-4 -2q-6 -5 -9 -7q-27 -21 -56 -49l-7 -7l3 4l-2 -2q-28 -32 -71 -32q-44 0 -71 32q-14 20 -14 43
q0 47 43 70q182 141 439 141q140 0 266 -47q127 -47 204 -134q77 -88 77 -204q0 -117 -63 -188q-54 -60 -194 -99z" />
    <glyph glyph-name="uni0418" unicode="&#x418;" horiz-adv-x="1348" 
d="M243 31q-26 -31 -65 -31q-86 0 -86 87v1261q0 87 86 87t86 -87v-1083l780 1124q5 10 12 18l2 2q26 26 61 26q86 0 86 -87l-1 -1273q-10 -75 -85 -75q-86 0 -86 87v1085l-785 -1133z" />
    <glyph glyph-name="uni0419" unicode="&#x419;" horiz-adv-x="1312" 
d="M1105 1435q87 0 87 -87l-1 -1273q-10 -75 -86 -75q-87 0 -87 87v1085l-797 -1133l-6 -8q-26 -31 -66 -31q-87 0 -87 87v1261q0 87 87 87t87 -87v-1083l793 1124q5 10 13 18l2 3q25 25 61 25zM362 1546q-53 43 -89 101q-35 57 -35 111q0 42 25 42l5 -2q20 -10 56 -56
q53 -70 119 -115q69 -48 193 -48q86 0 168 40q81 41 130 110l24 33q9 12 20 20q8 6 20 6q20 0 20 -34q0 -40 -25 -88q-27 -52 -57 -86q-117 -129 -309 -129q-150 0 -265 95z" />
    <glyph glyph-name="uni041A" unicode="&#x41a;" horiz-adv-x="1110" 
d="M1057 90q0 -90 -89 -90q-63 0 -84 61l-3 12q-93 326 -417 665q-53 -52 -129 -123q-48 -44 -102 -93l-1 -447q-11 -75 -85 -75q-86 0 -86 87v1261q0 87 86 87t86 -87v-675q282 251 623 727q2 4 7 10q21 25 53 25q70 0 70 -72q0 -31 -22 -52q-232 -294 -386 -452
q126 -132 247 -302q161 -228 229 -443q3 -13 3 -24z" />
    <glyph glyph-name="uni041B" unicode="&#x41b;" horiz-adv-x="1316" 
d="M39 97q55 184 60 201q46 134 112 306q83 218 160 395q37 84 80 181q58 127 98 194q54 91 83 91q52 0 116 -132q280 -571 483 -1202q7 -18 7 -36q0 -95 -94 -95q-67 0 -90 64q-170 587 -442 1165q-78 -148 -165 -367q-205 -511 -262 -802q-13 -60 -74 -60q-75 0 -75 76z
" />
    <glyph glyph-name="uni041C" unicode="&#x41c;" horiz-adv-x="1501" 
d="M1272 1434q87 0 87 -87l-1 -1272q-11 -75 -86 -75q-88 0 -88 87v987q-266 -573 -394 -851l-2 -2q-24 -45 -68 -45q-12 0 -26 4q-36 9 -53 42l-447 861l-1 -1030q-8 -53 -61 -53q-62 0 -62 61l3 1304q18 70 78 70q15 0 33 -4q39 -10 58 -46l498 -990l451 985q23 54 81 54z
" />
    <glyph glyph-name="uni041D" unicode="&#x41d;" horiz-adv-x="1375" 
d="M1145 1435q87 0 87 -87l-1 -1273q-11 -75 -86 -75q-87 0 -87 87v649h-823v-661h-1q-11 -75 -86 -75q-87 0 -87 87v1261q0 87 87 87t87 -87v-495h823v495q0 87 87 87z" />
    <glyph glyph-name="uni041E" unicode="&#x41e;" horiz-adv-x="1433" 
d="M1030 282q111 166 111 435q0 288 -128 457q-129 170 -347 170q-171 0 -285 -95q-102 -85 -152 -234q-45 -133 -45 -298q0 -282 130 -453q129 -171 343 -171q245 0 373 189zM1147 1246q190 -204 190 -529q0 -322 -189 -527t-486 -205q-295 0 -485 206t-190 526
q0 321 188 527t482 206q300 0 490 -204z" />
    <glyph glyph-name="uni041F" unicode="&#x41f;" horiz-adv-x="1317" 
d="M1088 1435q86 0 86 -87l-1 -1273q-10 -75 -85 -75q-86 0 -86 87v1231h-769v-1243h-2q-10 -75 -84 -75q-86 0 -86 87v1261q0 86 85 87h942z" />
    <glyph glyph-name="uni0420" unicode="&#x420;" horiz-adv-x="1173" 
d="M840 1238q-101 98 -330 98q-127 0 -168 -24q-63 -37 -64 -162v-479q113 0 204 8q154 15 251 54q189 77 189 278q0 148 -82 227zM801 621q-131 -42 -316 -56l-207 -7l-1 -483q-11 -75 -89 -75q-90 0 -90 87v1261q0 87 90 87h327q268 0 430 -101q178 -111 178 -290
q0 -321 -322 -423z" />
    <glyph glyph-name="uni0421" unicode="&#x421;" horiz-adv-x="1292" 
d="M1218 347q16 -18 16 -36q0 -62 -72 -136q-77 -79 -198 -131q-138 -59 -291 -59q-315 0 -500 208q-174 196 -174 508q0 326 201 537q202 212 515 212q122 0 264 -41q120 -35 157 -67q38 -28 38 -75q0 -93 -93 -93q-38 0 -65 27q-69 65 -116 92q-100 56 -218 56
q-208 0 -347 -179q-138 -180 -138 -451q0 -276 139 -444q140 -169 368 -169q107 0 207 40q100 39 160 107q31 48 50 70q33 42 65 42q16 0 32 -18z" />
    <glyph glyph-name="uni0422" unicode="&#x422;" horiz-adv-x="1142" 
d="M1048 1435q94 0 94 -96t-94 -96q-20 0 -37 8q-81 43 -135 58q-52 14 -152 19q-42 -5 -52 -19q-15 -20 -15 -110l-2 -1124q-10 -75 -84 -75q-86 0 -86 87v1157q-2 32 -5 44q-9 32 -66 39q-97 -4 -148 -18q-54 -15 -135 -58q-17 -8 -37 -8q-94 0 -94 96t94 96h954z" />
    <glyph glyph-name="uni0423" unicode="&#x423;" horiz-adv-x="1339" 
d="M1305 1361q-32 -238 -201 -622q-86 -195 -175 -350q-243 -419 -589 -419q-40 0 -66 30q-23 25 -23 58q0 75 73 87l16 2q15 0 31 -6l38 -1h17q248 0 414 343q-42 -35 -161 -35q-240 0 -459 409q-175 326 -175 468q0 10 1 18q0 92 92 92q80 0 92 -80q155 -763 509 -771
q31 0 86 9q199 35 347 774q0 67 66 67q67 0 67 -67v-6z" />
    <glyph glyph-name="uni0424" unicode="&#x424;" horiz-adv-x="1928" 
d="M1449 496q186 76 186 277q0 148 -81 227q-99 98 -325 98l-227 -15v-650q110 0 200 9q152 14 247 54zM817 1083l-227 15q-226 0 -325 -98q-81 -79 -81 -227q0 -201 186 -277q95 -40 247 -54q90 -9 200 -9v650zM1657 1096q175 -112 175 -290q0 -321 -317 -423
q-128 -41 -310 -56l-203 -9v-213q0 -105 -92 -105q-93 0 -93 105v215l-203 7q-182 15 -310 56q-317 102 -317 423q0 178 175 290q159 101 423 101h235v151q0 87 90 87q89 0 89 -87v-151h235q264 0 423 -101z" />
    <glyph glyph-name="uni0425" unicode="&#x425;" horiz-adv-x="1103" 
d="M1045 98q0 -98 -97 -98q-83 0 -96 82h-1q-57 211 -208 379q-115 129 -150 166l-7 7l-7 -8q-213 -266 -328 -580q-16 -45 -63 -45q-67 0 -67 67q0 20 11 36q188 373 382 607q-33 40 -49 59q-56 68 -105 137q-68 96 -143 221q-96 159 -96 191v3l-1 15q0 98 97 98
q90 0 97 -91q9 -94 86 -212q79 -120 229 -288q219 264 323 537q11 54 65 54q67 0 67 -67q0 -26 -17 -45q-173 -329 -370 -560q93 -101 178 -209q70 -90 137 -189q95 -141 125 -229l4 -12l-1 4q5 -16 5 -30z" />
    <glyph glyph-name="uni0426" unicode="&#x426;" horiz-adv-x="1331" 
d="M1266 64q27 -53 27 -139q0 -22 -17 -38q-16 -15 -37 -16q-33 7 -70 41q-48 46 -80 66q-23 15 -66 21l-875 1q-87 0 -87 87l1 1272q11 75 86 75q87 0 87 -87v-1230h782v1242q-1 0 -1 1l2 -1q10 75 86 75q87 0 87 -87l2 -1240q60 -19 73 -43z" />
    <glyph glyph-name="uni0427" unicode="&#x427;" horiz-adv-x="1283" 
d="M1061 1435q86 0 86 -87l-1 -1273q-10 -75 -85 -75q-86 0 -86 87v498q-221 -163 -419 -163q-203 0 -383 170q-139 131 -139 330v426q0 87 86 87t86 -87v-391q0 -188 90 -259q153 -122 316 -122q176 0 363 142v630q0 87 86 87z" />
    <glyph glyph-name="uni0428" unicode="&#x428;" horiz-adv-x="2225" 
d="M1992 1435q87 0 87 -87v-1261q0 -86 -86 -87h-1906q-87 0 -87 87l1 1273q11 75 86 75q87 0 87 -87v-1231h779v1243q10 75 87 75q87 0 87 -87v-1231h779v1243q11 75 86 75z" />
    <glyph glyph-name="uni0429" unicode="&#x429;" horiz-adv-x="2281" 
d="M2216 64q27 -53 27 -139q0 -22 -16 -38q-16 -15 -38 -16q-33 7 -69 41q-48 46 -80 66q-23 15 -66 21l-1826 1q-87 0 -87 87l1 1272q11 75 86 75q87 0 87 -87v-1230h780v1242q10 75 87 75q87 0 87 -87v-1230h780v1242q10 75 86 75q87 0 87 -87l2 -1240q60 -19 72 -43z" />
    <glyph glyph-name="uni042A" unicode="&#x42a;" horiz-adv-x="1640" 
d="M1225 197q81 79 81 227q0 201 -187 278q-96 39 -248 54q-90 8 -201 8v-479q1 -125 63 -162q41 -24 166 -24q226 0 326 98zM1186 814q318 -102 318 -423q0 -178 -176 -290q-160 -101 -424 -101h-323q-89 0 -89 87v1195q0 39 -69 45l-27 1q-54 0 -124 -19q-56 -15 -137 -58
l-39 -8q-95 0 -95 96t95 96h488q74 -2 85 -75l1 -483l205 -7q182 -15 311 -56z" />
    <glyph glyph-name="uni042B" unicode="&#x42b;" horiz-adv-x="1492" 
d="M771 197q79 79 79 227q0 201 -181 278q-93 39 -241 54q-87 8 -195 8v-479q1 -125 61 -162q40 -24 161 -24q219 0 316 98zM734 814q308 -102 308 -423q0 -178 -171 -290q-155 -101 -411 -101h-313q-86 0 -86 87v1261q0 87 86 87q75 0 85 -75l1 -483l199 -7
q177 -15 302 -56zM1274 1434q85 0 85 -87l-1 -1272q-11 -75 -84 -75q-84 0 -84 87v1260q0 87 84 87z" />
    <glyph glyph-name="uni042C" unicode="&#x42c;" horiz-adv-x="1121" 
d="M445 756q-91 8 -204 8v-479q1 -125 64 -162q41 -24 168 -24q229 0 330 98q82 79 82 227q0 201 -189 278q-96 39 -251 54zM478 0h-327q-90 0 -90 87v1261q0 87 90 87q78 0 89 -75l1 -483l207 -7q186 -15 316 -56q322 -102 322 -423q0 -178 -178 -290q-162 -101 -430 -101z
" />
    <glyph glyph-name="uni042D" unicode="&#x42d;" horiz-adv-x="1294" 
d="M1053 1249q206 -216 206 -549q0 -317 -178 -518q-188 -212 -509 -212q-156 0 -298 60q-123 53 -201 134q-74 76 -74 138q0 19 16 38q17 18 33 18q32 0 67 -43q18 -23 50 -71q62 -70 163 -110q102 -40 212 -40q232 0 375 172q142 171 142 453v3h-590q-59 0 -59 59t59 59
h583q-25 198 -134 339q-142 183 -354 183q-120 0 -223 -57q-47 -27 -117 -94q-28 -28 -67 -28q-95 0 -95 95q0 48 39 77q38 33 161 68q143 42 269 42q319 0 524 -216z" />
    <glyph glyph-name="uni042E" unicode="&#x42e;" horiz-adv-x="1916" 
d="M1509 273q113 169 113 444q0 294 -130 467q-130 172 -351 172q-173 0 -289 -96q-103 -87 -153 -239q-45 -135 -45 -304q0 -287 131 -462q130 -175 347 -175q248 0 377 193zM1628 1257q192 -209 192 -540q0 -329 -191 -538t-492 -209q-299 0 -491 210t-192 537v4h-221
v-646h-1q-10 -75 -85 -75q-86 0 -86 87v1261q0 86 86 86t86 -86v-509h229q29 247 182 416q190 210 488 210q304 0 496 -208z" />
    <glyph glyph-name="uni042F" unicode="&#x42f;" horiz-adv-x="1229" 
d="M906 1150q-1 125 -64 162q-41 24 -168 24q-235 0 -336 -103q-76 -79 -76 -222q0 -175 139 -254q104 -58 296 -77q93 -9 209 -9v479zM237 481q40 75 89 146q-57 36 -105 69q-160 107 -160 348q0 164 154 273q164 118 454 118h327q90 0 90 -87v-1261q0 -87 -90 -87
q-78 0 -89 75l-1 483l-227 9q-92 8 -170 23q-134 -183 -238 -516q-22 -73 -98 -73q-102 0 -102 101q0 20 9 40l65 146q71 154 92 193z" />
    <glyph glyph-name="uni0401" unicode="&#x401;" horiz-adv-x="1086" 
d="M966 187q93 0 93 -93q0 -94 -93 -94h-817q-88 0 -88 88l-1 1268q0 88 88 88h749q96 0 96 -97t-96 -97q-20 0 -38 8q-83 43 -139 59q-75 20 -247 20q-115 0 -182 -10q-8 -3 -13 -7q-37 -26 -42 -107v-368h579q60 0 60 -59q0 -60 -60 -60h-579l1 -463q3 -88 27 -116
q28 -33 128 -33h214q215 0 320 64q19 9 40 9zM345 1582q-117 0 -117 95q0 96 117 96q116 0 116 -96q0 -95 -116 -95zM707 1582q-117 0 -117 95q0 96 117 96q116 0 116 -96q0 -95 -116 -95z" />
    <glyph glyph-name="uni0451" unicode="&#x451;" horiz-adv-x="1063" 
d="M337 1172q-117 0 -117 95q0 96 117 96q116 0 116 -96q0 -95 -116 -95zM699 1172q-117 0 -117 95q0 96 117 96q116 0 116 -96q0 -95 -116 -95zM624 562q166 74 166 212q0 75 -54 121t-146 46q-176 0 -279 -162q-83 -130 -83 -284q248 0 396 67zM904 256q21 10 38 10
q31 0 47 -32q3 -7 3 -14q0 -50 -134 -139q-139 -91 -320 -91q-217 0 -352 131q-134 131 -134 344q0 247 162 409q162 161 409 161q155 0 252 -73t97 -192q0 -85 -31 -134q-51 -97 -194 -161q-208 -78 -517 -84q13 -127 118 -201q95 -67 229 -67q76 0 178 44q88 48 149 89z
" />
    <glyph glyph-name="uni0430" unicode="&#x430;" horiz-adv-x="1043" 
d="M648 179q116 86 116 274l-4 119q-61 5 -115 5q-192 0 -296 -66q-114 -74 -114 -206q0 -82 58 -135q57 -52 149 -52q124 0 206 61zM814 905q113 -120 113 -385v-416q0 -77 -77 -77l-17 2q-68 10 -69 79v71q-77 -86 -153 -127q-99 -52 -226 -52q-144 0 -241 83
q-96 84 -96 208q0 193 152 289q169 108 539 108q-17 107 -94 169q-76 63 -193 63q-45 0 -76 -11q-32 -10 -97 -46q-54 -29 -72 -36t-40 -7q-25 0 -37 7q-23 13 -23 49q0 69 91 109t246 40q257 0 370 -120z" />
    <glyph glyph-name="uni0431" unicode="&#x431;" horiz-adv-x="1215" 
d="M870 221q96 112 96 292q0 179 -95 291t-245 112q-148 0 -242 -112q-95 -113 -95 -291q0 -174 95 -289q94 -115 238 -115q153 0 248 112zM999 883q145 -144 145 -373q0 -222 -146 -366t-372 -144q-228 0 -373 144q-141 140 -145 358q-4 53 -4 117q0 146 21 348
q33 311 255 449q50 32 106 50q59 19 145 38q89 19 132 30q24 6 74 27l31 15q21 14 45 14q79 0 79 -78q0 -23 -31 -67q-34 -43 -85 -71q-53 -29 -113 -39l-267 -59q-60 -12 -141 -64q-124 -81 -137 -366q16 19 34 38q144 143 372 143q229 0 375 -144z" />
    <glyph glyph-name="uni0432" unicode="&#x432;" horiz-adv-x="1029" 
d="M731 427q-130 80 -483 80v-333q29 -75 190 -75q178 0 282 56q93 50 93 138q0 82 -82 134zM248 860v-241q320 0 411 68q51 39 51 115q0 55 -57 87q-71 40 -219 40q-157 0 -186 -69zM808 51q-115 -51 -280 -51h-356q-82 0 -82 82v862q0 81 82 81h314q161 -1 266 -48
q135 -60 135 -187q0 -115 -124 -182q-48 -26 -106 -39q124 -22 203 -73q118 -75 118 -200q0 -170 -170 -245z" />
    <glyph glyph-name="uni0433" unicode="&#x433;" horiz-adv-x="853" 
d="M765 1025q55 -10 55 -65q0 -63 -63 -63l-27 7v1q0 4 -52 25q-26 10 -96 10h-262q-11 -7 -11 -18v-840q0 -82 -81 -82q-82 0 -82 82v862q0 81 82 81h537z" />
    <glyph glyph-name="uni0434" unicode="&#x434;" horiz-adv-x="980" 
d="M740 90q-66 209 -145 433q-119 335 -147 349q-17 -17 -144 -382q-138 -399 -138 -400h574zM972 53q23 -45 23 -120q0 -18 -14 -32q-13 -13 -32 -14q-28 6 -60 36q-41 39 -69 56q-31 20 -99 21h-511q-70 -1 -100 -21q-27 -17 -69 -56q-32 -30 -60 -36q-19 1 -32 14
q-14 14 -14 32q9 86 20 120q6 26 75 37q39 137 152 439q168 447 217 486q27 22 68 25h7q39 0 77 -30q40 -31 207 -476q141 -375 152 -444q51 -16 62 -37z" />
    <glyph glyph-name="uni0435" unicode="&#x435;" horiz-adv-x="1063" 
d="M624 562q166 74 166 212q0 75 -54 121t-146 46q-176 0 -279 -162q-83 -130 -83 -284q248 0 396 67zM904 256q21 10 38 10q31 0 47 -32q3 -7 3 -14q0 -50 -134 -139q-139 -91 -320 -91q-217 0 -352 131q-134 131 -134 344q0 247 162 409q162 161 409 161q155 0 252 -73
t97 -192q0 -85 -31 -134q-51 -97 -194 -161q-208 -78 -517 -84q13 -127 118 -201q95 -67 229 -67q76 0 178 44q88 48 149 89z" />
    <glyph glyph-name="uni0436" unicode="&#x436;" horiz-adv-x="1542" 
d="M1479 82q0 -82 -83 -82q-70 0 -84 68q-37 146 -128 248q-103 116 -161 174q-53 -39 -99 -69q-57 -39 -80 -53l-1 -303q-9 -42 -49 -59q-16 -6 -33 -6q-16 0 -32 6q-40 17 -49 59l-1 303q-23 14 -80 53q-46 31 -99 69q-58 -58 -161 -174q-91 -102 -128 -248h-2
q-12 -68 -82 -68q-83 0 -83 82v6q0 53 78 181q44 70 99 139q72 91 167 184q-118 102 -285 329q-16 18 -16 41q0 61 62 61q37 0 55 -32q133 -217 214 -295t165 -140q54 -39 96 -67v455q0 58 56 76q14 5 27 5t27 -5q55 -19 55 -76v-455q42 28 96 67q84 62 165 140t214 295
q18 32 55 32q62 0 62 -61q0 -23 -16 -41q-167 -227 -285 -329q94 -93 167 -184q55 -69 99 -139q78 -127 78 -181v-6z" />
    <glyph glyph-name="uni0437" unicode="&#x437;" horiz-adv-x="973" 
d="M682 566q206 -52 206 -267q0 -84 -54 -158q-42 -57 -152 -107q-96 -44 -215 -44q-128 0 -217 40q-178 79 -197 189l-1 22q7 58 67 58q52 0 65 -49q37 -74 111 -109q88 -43 184 -43q102 0 165 56q96 86 96 161t-93 139q-76 52 -186 52h-138q-38 0 -59 17q-18 15 -18 33
q0 20 17 34q19 16 55 16h143q88 0 144 45q58 46 58 123q0 162 -190 171h-17q-137 0 -228 -92q-17 -21 -45 -21q-59 0 -59 56q0 32 30 49q127 98 305 98q98 0 186 -33t142 -94q53 -61 53 -142q0 -82 -44 -131q-44 -50 -114 -69z" />
    <glyph glyph-name="uni0438" unicode="&#x438;" horiz-adv-x="1050" 
d="M935 82q0 -82 -83 -82t-83 82v722l-498 -759q-23 -45 -73 -45q-83 0 -83 82v861q0 82 83 82q82 0 83 -82v-719l500 761l5 7q25 33 66 33q83 0 83 -82v-861z" />
    <glyph glyph-name="uni0439" unicode="&#x439;" horiz-adv-x="1023" 
d="M316 1207q-37 30 -62 71q-25 40 -25 78q0 29 18 29l3 -1q14 -7 39 -39q38 -49 84 -81q48 -34 136 -34q60 0 117 29q57 28 92 77q11 15 16 23q7 8 15 14q5 4 14 4q14 0 14 -24q0 -28 -18 -62q-18 -36 -40 -60q-82 -90 -217 -90q-105 0 -186 66zM908 82q0 -82 -82 -82
t-82 82v723l-491 -760q-23 -45 -73 -45q-82 0 -82 82v862q0 82 82 82q81 0 82 -82v-720l494 762l5 7q25 33 65 33q82 0 82 -82v-862z" />
    <glyph glyph-name="uni043A" unicode="&#x43a;" horiz-adv-x="979" 
d="M901 82q0 -82 -82 -82q-69 0 -83 68q-37 146 -127 248q-102 116 -158 174q-53 -39 -99 -69q-56 -39 -78 -53v-286q0 -82 -82 -82t-82 82v862q0 81 82 81t82 -81v-455q41 28 95 67q82 62 162 140t212 295q18 32 54 32q62 0 62 -61q0 -23 -16 -41q-166 -227 -282 -329
q93 -93 165 -184q55 -69 98 -139q77 -127 77 -181v-6z" />
    <glyph glyph-name="uni043B" unicode="&#x43b;" horiz-adv-x="985" 
d="M932 82q0 -81 -81 -81q-63 0 -80 60q-65 206 -149 442q-125 351 -153 365q-17 -16 -143 -375q-160 -456 -159 -453q-16 -40 -59 -40q-63 0 -63 63l2 15q49 166 172 489q155 407 201 443q27 22 68 25h7q40 0 77 -29q37 -30 195 -442q127 -333 159 -452z" />
    <glyph glyph-name="uni043C" unicode="&#x43c;" horiz-adv-x="1222" 
d="M1121 81q0 -81 -82 -81t-82 81v703l-270 -596q-10 -26 -34 -40q-26 -16 -49 -16q-36 0 -63 43l-354 602v-729q0 -45 -45 -45q-46 0 -46 45v897q0 80 81 80q36 0 61 -29q2 0 14 -18l397 -666l303 661q27 51 87 51q82 0 82 -81v-862z" />
    <glyph glyph-name="uni043D" unicode="&#x43d;" horiz-adv-x="1033" 
d="M918 82q0 -82 -83 -82t-83 82v449h-488v-449q0 -82 -83 -82t-83 82v862q0 81 83 81q82 0 83 -81v-324h488v324q1 81 83 81q83 0 83 -81v-862z" />
    <glyph glyph-name="uni043E" unicode="&#x43e;" horiz-adv-x="1170" 
d="M822 215q96 113 96 297q0 181 -96 296q-95 114 -246 114q-150 0 -245 -115q-96 -114 -96 -295q0 -177 96 -294q95 -117 240 -117q155 0 251 114zM951 888q147 -147 147 -379q0 -226 -147 -373q-147 -146 -375 -146q-231 0 -377 146q-146 147 -146 376q0 230 145 377
q145 146 375 146q232 0 378 -147z" />
    <glyph glyph-name="uni043F" unicode="&#x43f;" horiz-adv-x="1016" 
d="M918 82q0 -82 -83 -82t-83 82v854h-488v-854q0 -82 -83 -82t-83 82v862q0 68 69 80l668 1q83 0 83 -81v-862z" />
    <glyph glyph-name="uni0440" unicode="&#x440;" horiz-adv-x="1126" 
d="M770 224q88 124 88 315q0 157 -88 260q-88 104 -222 104q-106 0 -186 -41t-91 -103l-4 -544q112 -115 279 -115q136 0 224 124zM890 902q143 -136 143 -363q0 -234 -136 -388q-136 -155 -343 -155h-20q-47 0 -95 13q-75 19 -172 73l-1 -1v-426q0 -82 -81 -82t-81 82v1289
q2 81 81 81q80 0 81 -81v-47q80 64 150 94q79 34 168 34q177 0 306 -123z" />
    <glyph glyph-name="uni0441" unicode="&#x441;" horiz-adv-x="981" 
d="M811 89q-127 -99 -291 -99q-201 0 -334 139t-133 351q0 235 144 395q145 160 359 160q133 0 231 -58q97 -58 97 -137q0 -35 -26 -60t-62 -25q-48 0 -82 42q-43 61 -57 75q-45 49 -115 49q-117 0 -189 -71q-61 -61 -89 -168q-22 -87 -22 -194q0 -161 86 -265
q87 -103 224 -103q59 0 125 24q65 24 97 57q20 21 45 46q39 36 57 36l24 -3q19 -10 19 -40q0 -67 -108 -151z" />
    <glyph glyph-name="uni0442" unicode="&#x442;" horiz-adv-x="870" 
d="M789 1025q56 -7 56 -63q0 -63 -64 -63q-14 0 -27 6q0 7 -54 27q-25 10 -97 10l-74 -4q-12 -3 -12 -14v-839q0 -85 -83 -85q-82 0 -82 85v839q0 11 -12 14l-73 4q-72 0 -97 -10q-54 -21 -54 -27q-13 -6 -27 -6q-64 0 -64 63q0 56 56 63h708z" />
    <glyph glyph-name="uni0443" unicode="&#x443;" horiz-adv-x="1027" 
d="M969 969q-7 -514 -246 -965q-91 -192 -250 -323q-148 -122 -311 -122q-50 0 -84 28q-35 27 -35 67q0 32 22 49q21 18 61 18q9 0 52 -4l59 -4q108 0 199 85q99 93 158 231q-38 -15 -66 -23q-29 -7 -60 -7q-153 0 -244 173q-117 220 -148 528l-5 251q4 78 81 78
q81 0 81 -81q0 -297 39 -461q33 -142 103 -253q76 -122 166 -122q100 0 174 153q61 126 98 356q11 75 30 351q2 61 63 61q56 0 63 -57v-7z" />
    <glyph glyph-name="uni0444" unicode="&#x444;" horiz-adv-x="1875" 
d="M1532 221q91 126 91 320q0 160 -91 265q-91 106 -229 106q-110 0 -192 -42t-94 -104l-4 -554q115 -117 288 -117q140 0 231 126zM555 95q173 0 288 117l-4 554q-12 62 -94 104t-192 42q-138 0 -229 -106q-91 -105 -91 -265q0 -194 91 -320t231 -126zM1655 911
q148 -139 148 -370q0 -237 -140 -394t-354 -157h-21q-48 0 -97 12q-79 20 -178 75l-1 -383q0 -83 -84 -83t-84 83l-1 383q-99 -55 -178 -75q-49 -12 -97 -12h-21q-213 0 -354 157q-140 157 -140 394q0 231 148 370q132 125 316 125q90 0 172 -35q72 -30 155 -95v373
q2 82 84 82t84 -82v-373q83 65 155 95q81 35 172 35q184 0 316 -125z" />
    <glyph glyph-name="uni0445" unicode="&#x445;" horiz-adv-x="960" 
d="M847 137q22 -30 22 -57q0 -33 -35 -60q-26 -21 -50 -21q-33 0 -62 40l-295 399q-113 -126 -148 -179q-61 -95 -69 -194q-4 -60 -63 -60q-63 0 -63 64q0 75 73 184q32 49 71 99q50 66 138 168l-273 369q-22 30 -22 56q0 33 35 60q26 20 50 20q34 0 63 -39l269 -364
q93 100 124 147q63 93 73 192q5 60 62 60h2q61 -2 61 -62v-4q-1 -75 -76 -183q-33 -48 -73 -97q-41 -53 -113 -134z" />
    <glyph glyph-name="uni0446" unicode="&#x446;" horiz-adv-x="1034" 
d="M982 47q24 -54 24 -119q0 -18 -15 -32q-13 -13 -31 -14q-28 6 -59 35q-42 39 -69 57q-30 19 -99 20h-553q-82 0 -82 82v866q0 82 82 82t82 -82v-859h484v859q0 82 82 82t82 -82v-859h32q25 0 40 -36z" />
    <glyph glyph-name="uni0447" unicode="&#x447;" horiz-adv-x="970" 
d="M787 1025q83 0 83 -82v-862q0 -81 -83 -81q-82 0 -83 81v342q-153 -95 -415 -97q-25 0 -49 2q-190 13 -190 219v396q0 82 83 82t83 -82v-378q0 -124 141 -124q199 0 347 73v429q0 82 83 82z" />
    <glyph glyph-name="uni0448" unicode="&#x448;" horiz-adv-x="1662" 
d="M1480 1025q82 0 82 -82v-862q0 -69 -69 -80l-1313 -1q-82 0 -82 81v862q0 82 82 82q83 0 83 -82v-854h485v854q0 82 82 82t82 -82v-854h485v854q0 82 83 82z" />
    <glyph glyph-name="uni0449" unicode="&#x449;" horiz-adv-x="1678" 
d="M1627 46q23 -53 23 -118q0 -18 -14 -32q-13 -13 -32 -14q-27 6 -58 35q-41 39 -68 56q-31 20 -98 21h-1200q-82 0 -82 82v866q0 82 82 82q81 0 81 -82v-859h481v859q0 82 81 82q82 0 82 -82v-859h480v859q0 82 82 82q81 0 81 -82v-859h39q24 0 40 -37z" />
    <glyph glyph-name="uni044A" unicode="&#x44a;" horiz-adv-x="1104" 
d="M805 155q80 50 80 138q0 127 -124 195q-119 66 -337 66v-380q19 -75 138 -75q153 0 243 56zM424 651q271 0 423 -77q179 -90 179 -278q0 -170 -146 -245q-99 -51 -240 -51h-306q-71 0 -71 82v827q-1 12 -12 16l-110 -7q-52 -23 -52 -30l-26 -8q-62 0 -62 72q0 62 54 73
h287q80 0 80 -82v-291z" />
    <glyph glyph-name="uni044B" unicode="&#x44b;" horiz-adv-x="1304" 
d="M1105 1025q84 0 84 -82v-862q0 -81 -84 -81t-84 81v862q0 82 84 82zM660 155q82 50 82 138q0 124 -123 193q-123 68 -355 68v-380q20 -75 143 -75q160 0 253 56zM264 651q292 0 451 -82q174 -91 174 -273q0 -170 -151 -245q-103 -51 -250 -51h-318q-74 0 -74 82v861
q0 82 83 82t83 -82z" />
    <glyph glyph-name="uni044C" unicode="&#x44c;" horiz-adv-x="989" 
d="M681 155q85 50 85 138q0 129 -137 198q-127 63 -357 63v-380q20 -75 148 -75q164 0 261 56zM272 651q321 0 486 -94q160 -90 160 -261q0 -170 -157 -245q-106 -51 -257 -51h-329q-77 0 -77 82v861q0 82 86 82t86 -82z" />
    <glyph glyph-name="uni044D" unicode="&#x44d;" horiz-adv-x="989" 
d="M774 875q144 -160 144 -395q0 -212 -133 -351t-334 -139q-164 0 -291 99q-108 84 -108 151q0 30 19 40l24 3q18 0 57 -36q23 -23 45 -46q31 -33 97 -57t125 -24q137 0 224 103q86 104 86 265l-1 44h-340q-46 0 -46 45t46 45h331q-6 35 -12 60q-28 107 -89 168
q-72 71 -189 71q-70 0 -115 -49q-14 -14 -57 -75q-34 -42 -82 -42q-36 0 -62 25t-26 60q0 79 97 137q98 58 231 58q214 0 359 -160z" />
    <glyph glyph-name="uni044E" unicode="&#x44e;" horiz-adv-x="1657" 
d="M1279 215q98 113 98 297q0 181 -97 296q-98 114 -252 114q-152 0 -249 -115q-98 -114 -98 -295q0 -178 98 -294q97 -117 245 -117q157 0 255 114zM1411 888q150 -147 150 -379q0 -226 -150 -373q-150 -146 -383 -146q-235 0 -384 146q-149 147 -149 376l1 21h-229v-451
q0 -82 -84 -82q-85 0 -85 82v859q0 83 85 83q84 0 84 -83v-318h238q28 156 138 266q148 146 383 146q236 0 385 -147z" />
    <glyph glyph-name="uni044F" unicode="&#x44f;" horiz-adv-x="962" 
d="M691 851q-21 75 -148 75q-164 0 -260 -56q-72 -50 -76 -138q0 -123 116 -191q127 -70 368 -70v380zM787 1025q77 0 77 -82v-861q0 -82 -86 -82t-86 82v291l-1 1q-167 0 -296 27l-42 -49q-98 -119 -140 -283q-14 -69 -85 -69q-84 0 -84 91q0 67 88 213q44 71 104 148
q-190 91 -190 277q0 170 156 245q106 51 258 51h327z" />
    <glyph glyph-name="uni20BD" unicode="&#x20bd;" horiz-adv-x="1262" 
d="M831 733q185 77 185 278q0 148 -81 227q-98 98 -323 98q-123 0 -164 -24q-61 -37 -62 -162v-479q110 0 199 8q151 15 246 54zM1038 1334q174 -112 174 -290q0 -321 -315 -423q-127 -41 -308 -56l-203 -7v-133h127q69 0 69 -69q0 -70 -69 -70h-127l-1 -211
q-11 -75 -89 -75q-86 0 -86 87v199h-91q-69 0 -69 70q0 69 69 69h91v119h-91q-69 0 -69 69t69 69h91v666q0 87 86 87h321q262 0 421 -101z" />
    </font>
</defs>
</svg>
